<svg width="870" height="650" viewBox="0 0 870 650" fill="none" xmlns="http://www.w3.org/2000/svg">
<g clip-path="url(#clip0)">
<path d="M835.54 544.36C770.05 649.17 632 681.04 527.19 615.55L203.95 413.55C99.14 348.09 67.26 210.04 132.75 105.23C198.24 0.41993 336.3 -31.4601 441.11 33.9899L764.34 235.99C869.15 301.5 901.03 439.55 835.54 544.36Z" fill="#EE5253"/>
<path d="M844.2 474.93C837.43 482.32 818.57 462.23 803.58 467.84C788.59 473.45 789.79 437.12 803.58 443.33C817.37 449.54 835.01 427.96 844.2 435.64C853.39 443.32 833.81 457.8 844.2 474.93Z" fill="#EC8C92"/>
<path d="M730.76 446.78C730.76 446.78 746.16 415.83 755.05 418.41C758.81 419.5 755.14 423.25 758.97 424.06C764.97 425.31 768.59 409.42 778.09 410.73C785.56 411.73 779.19 422.65 785.23 424.02C788.97 424.87 796.77 419.33 798.94 422.49C802.09 427.09 789.57 441.38 789.57 441.38L730.76 446.78Z" fill="#EC8C92"/>
<path d="M772.4 490.92C748.98 490.92 712.89 468.56 713.02 461.21C713.09 457.21 717.51 452.68 723.24 448.42C736.369 438.741 752.269 433.554 768.58 433.63H786.58C789.781 433.627 792.95 434.255 795.908 435.478C798.866 436.702 801.554 438.495 803.818 440.758C806.082 443.02 807.878 445.706 809.104 448.663C810.329 451.62 810.96 454.789 810.96 457.99C810.96 478.99 793.35 490.92 772.4 490.92Z" fill="#F5C62C"/>
<path d="M757.46 483.07C757.46 483.07 793.67 494.47 789.37 499.02C785.07 503.57 751.64 500.04 757.46 483.07Z" fill="#EC8C92"/>
<path d="M743.64 465.88C742.038 465.882 740.471 465.409 739.137 464.52C737.804 463.631 736.764 462.367 736.15 460.887C735.535 459.407 735.373 457.778 735.685 456.206C735.996 454.634 736.767 453.19 737.899 452.056C739.032 450.922 740.475 450.15 742.046 449.836C743.618 449.523 745.247 449.683 746.728 450.296C748.208 450.908 749.474 451.947 750.365 453.279C751.255 454.611 751.73 456.177 751.73 457.78C751.73 459.926 750.878 461.985 749.361 463.504C747.844 465.023 745.787 465.877 743.64 465.88V465.88ZM743.64 451.68C742.433 451.678 741.253 452.034 740.249 452.703C739.244 453.372 738.461 454.324 737.997 455.439C737.534 456.553 737.412 457.78 737.646 458.964C737.881 460.148 738.461 461.236 739.313 462.09C740.166 462.944 741.253 463.526 742.437 463.762C743.62 463.998 744.847 463.878 745.962 463.417C747.078 462.955 748.031 462.173 748.702 461.17C749.372 460.167 749.73 458.987 749.73 457.78C749.728 456.165 749.085 454.616 747.944 453.473C746.803 452.33 745.256 451.685 743.64 451.68V451.68Z" fill="white"/>
<path d="M760.94 481.58C760.752 481.579 760.568 481.524 760.409 481.423C760.25 481.322 760.123 481.177 760.042 481.007C759.962 480.837 759.931 480.647 759.954 480.46C759.977 480.273 760.051 480.096 760.17 479.95C763.609 475.752 765.701 470.613 766.17 465.207C766.639 459.8 765.465 454.378 762.8 449.65C762.735 449.536 762.692 449.41 762.675 449.279C762.658 449.148 762.667 449.016 762.701 448.888C762.736 448.761 762.795 448.642 762.875 448.537C762.956 448.433 763.056 448.346 763.17 448.28C763.284 448.214 763.41 448.172 763.541 448.155C763.672 448.138 763.805 448.147 763.932 448.181C764.059 448.216 764.178 448.275 764.283 448.355C764.387 448.435 764.475 448.536 764.54 448.65C767.403 453.728 768.666 459.553 768.163 465.361C767.66 471.169 765.414 476.69 761.72 481.2C761.627 481.318 761.509 481.413 761.374 481.479C761.239 481.545 761.09 481.579 760.94 481.58V481.58Z" fill="black"/>
<path d="M750.72 482.88C750.575 482.879 750.432 482.846 750.3 482.784C750.169 482.722 750.053 482.632 749.96 482.52C736.18 466.01 713.33 463.3 713.1 463.27C712.969 463.256 712.842 463.215 712.726 463.152C712.61 463.088 712.508 463.002 712.425 462.899C712.258 462.691 712.181 462.425 712.21 462.16C712.239 461.895 712.373 461.652 712.581 461.485C712.789 461.318 713.055 461.241 713.32 461.27C714.32 461.38 737.2 464.11 751.49 481.27C751.657 481.473 751.737 481.735 751.713 481.997C751.688 482.259 751.562 482.501 751.36 482.67C751.178 482.812 750.951 482.886 750.72 482.88Z" fill="black"/>
<path d="M410.64 586.59C405.91 591.75 392.72 577.71 382.24 581.59C371.76 585.47 372.6 560.11 382.24 564.45C391.88 568.79 404.24 553.71 410.64 559.08C417.04 564.45 403.4 574.61 410.64 586.59Z" fill="#EC8C92"/>
<path d="M331.36 566.91C331.36 566.91 342.12 545.27 348.36 547.07C350.98 547.84 348.42 550.45 351.09 551.02C355.26 551.89 357.82 540.78 364.46 541.7C369.68 542.43 365.23 550.03 369.46 550.99C372.07 551.59 377.52 547.71 379.04 549.92C381.24 553.14 372.49 563.13 372.49 563.13L331.36 566.91Z" fill="#EC8C92"/>
<path d="M350.03 592.28C350.03 592.28 375.35 600.28 372.34 603.43C369.33 606.58 345.99 604.14 350.03 592.28Z" fill="#EC8C92"/>
<path d="M360.47 597.76C344.1 597.76 318.87 582.14 318.96 577C318.96 574.22 322.1 571 326.1 568C335.279 561.233 346.396 557.606 357.8 557.66H370.4C374.909 557.66 379.233 559.451 382.421 562.639C385.609 565.827 387.4 570.151 387.4 574.66V574.66C387.43 589.39 375.12 597.76 360.47 597.76Z" fill="#F2BDBA"/>
<path d="M340.36 579.69C339.173 579.69 338.013 579.338 337.027 578.679C336.04 578.019 335.271 577.082 334.817 575.986C334.363 574.89 334.244 573.683 334.475 572.519C334.707 571.356 335.278 570.286 336.117 569.447C336.957 568.608 338.026 568.037 339.19 567.805C340.353 567.574 341.56 567.693 342.656 568.147C343.753 568.601 344.69 569.37 345.349 570.357C346.008 571.343 346.36 572.503 346.36 573.69C346.36 575.281 345.728 576.807 344.603 577.933C343.478 579.058 341.951 579.69 340.36 579.69V579.69ZM340.36 569.76C339.569 569.76 338.796 569.994 338.138 570.434C337.48 570.874 336.967 571.498 336.665 572.229C336.362 572.96 336.283 573.764 336.437 574.54C336.591 575.316 336.972 576.029 337.532 576.588C338.091 577.148 338.804 577.529 339.58 577.683C340.356 577.837 341.16 577.758 341.891 577.455C342.622 577.153 343.247 576.64 343.686 575.982C344.126 575.324 344.36 574.551 344.36 573.76C344.36 573.235 344.257 572.714 344.056 572.229C343.855 571.744 343.56 571.303 343.189 570.932C342.817 570.56 342.376 570.265 341.891 570.064C341.406 569.863 340.885 569.76 340.36 569.76V569.76Z" fill="white"/>
<path d="M352.46 591.54C352.23 591.538 352.007 591.457 351.83 591.31C351.728 591.227 351.644 591.124 351.581 591.008C351.519 590.892 351.48 590.765 351.467 590.634C351.454 590.503 351.467 590.371 351.506 590.245C351.544 590.119 351.606 590.002 351.69 589.9C354.052 587.011 355.488 583.477 355.811 579.759C356.134 576.042 355.328 572.313 353.5 569.06C353.434 568.946 353.392 568.82 353.375 568.689C353.358 568.558 353.367 568.426 353.401 568.298C353.436 568.171 353.495 568.052 353.575 567.948C353.656 567.843 353.756 567.756 353.87 567.69C353.984 567.624 354.11 567.582 354.241 567.565C354.372 567.548 354.505 567.557 354.632 567.591C354.759 567.626 354.878 567.685 354.982 567.765C355.087 567.846 355.174 567.946 355.24 568.06C357.267 571.664 358.16 575.795 357.804 579.914C357.447 584.033 355.856 587.949 353.24 591.15C353.148 591.27 353.03 591.367 352.895 591.435C352.76 591.502 352.611 591.538 352.46 591.54V591.54Z" fill="black"/>
<path d="M345.32 592.44C345.173 592.44 345.028 592.408 344.895 592.346C344.762 592.284 344.644 592.193 344.55 592.08C334.99 580.63 319.14 578.75 318.98 578.73C318.718 578.7 318.478 578.567 318.314 578.361C318.149 578.155 318.072 577.892 318.1 577.63C318.114 577.499 318.153 577.373 318.216 577.257C318.279 577.142 318.364 577.04 318.466 576.957C318.568 576.874 318.685 576.813 318.811 576.775C318.937 576.738 319.069 576.726 319.2 576.74C319.89 576.82 336.02 578.74 346.09 590.8C346.174 590.901 346.238 591.018 346.277 591.143C346.316 591.269 346.33 591.401 346.318 591.532C346.306 591.663 346.268 591.79 346.206 591.907C346.145 592.023 346.061 592.126 345.96 592.21C345.78 592.359 345.554 592.44 345.32 592.44V592.44Z" fill="black"/>
<path d="M1.54004 360.83C5.64004 366.63 17.06 350.83 26.14 355.26C35.22 359.69 34.49 331.13 26.14 336.01C17.79 340.89 7.14004 323.94 1.54004 330.01C-4.05996 336.08 7.83004 347.37 1.54004 360.83Z" fill="#EE5253"/>
<path d="M79.72 334.47C79.72 334.47 68.38 304.91 61.82 307.37C59.06 308.37 61.76 311.99 58.94 312.76C54.55 313.96 51.85 298.76 44.85 300.04C39.36 301.04 44.04 311.42 39.59 312.73C36.84 313.54 31.09 308.24 29.5 311.27C27.18 315.66 36.39 329.27 36.39 329.27L79.72 334.47Z" fill="#EE5253"/>
<path d="M49.0501 376.63C66.3001 376.63 92.8802 355.28 92.7902 348.26C92.7902 344.47 89.4801 340.11 85.2601 336.03C75.6301 326.73 63.8601 321.91 51.8601 321.91H38.6401C28.7301 321.91 20.6401 332.33 20.6401 345.18C20.6401 365.19 33.6401 376.63 49.0501 376.63Z" fill="#F5C62C"/>
<path d="M60.0501 369.14C60.0501 369.14 33.3801 380.02 36.5501 384.38C39.7201 388.74 64.3101 385.34 60.0501 369.14Z" fill="#EE5253"/>
<path d="M70.24 351.82C66.81 351.82 64.01 348.33 64.01 344.04C64.01 339.75 66.81 336.26 70.24 336.26C73.67 336.26 76.47 339.75 76.47 344.04C76.47 348.33 73.64 351.82 70.24 351.82ZM70.24 338.26C67.91 338.26 66.01 340.85 66.01 344.04C66.01 347.23 67.91 349.82 70.24 349.82C72.57 349.82 74.47 347.22 74.47 344.04C74.47 340.86 72.57 338.26 70.24 338.26V338.26Z" fill="white"/>
<path d="M57.49 367.76C57.3201 367.76 57.1529 367.718 57.0042 367.635C56.8555 367.553 56.7301 367.434 56.6401 367.29C53.4434 362.038 51.7775 355.998 51.8301 349.85C51.8082 345.208 52.7372 340.61 54.56 336.34C54.6078 336.213 54.681 336.097 54.775 335.999C54.8691 335.901 54.982 335.823 55.1071 335.771C55.2322 335.718 55.3667 335.691 55.5024 335.692C55.6382 335.693 55.7723 335.721 55.8967 335.776C56.0211 335.83 56.1331 335.909 56.2259 336.008C56.3188 336.107 56.3904 336.224 56.4366 336.352C56.4827 336.48 56.5024 336.615 56.4944 336.751C56.4864 336.886 56.4509 337.019 56.3901 337.14C54.6784 341.158 53.8072 345.483 53.8301 349.85C53.7775 355.619 55.336 361.288 58.3301 366.22C58.4003 366.331 58.4481 366.455 58.4705 366.584C58.493 366.714 58.4897 366.846 58.4609 366.974C58.4321 367.102 58.3784 367.224 58.3027 367.331C58.2271 367.438 58.131 367.53 58.0201 367.6C57.862 367.702 57.6782 367.758 57.49 367.76Z" fill="black"/>
<path d="M65.01 368.99C64.819 368.985 64.6328 368.93 64.47 368.83C64.3584 368.759 64.2621 368.666 64.1865 368.558C64.111 368.449 64.0577 368.327 64.0298 368.198C64.0019 368.068 63.9999 367.935 64.024 367.805C64.048 367.675 64.0977 367.551 64.17 367.44C67.3629 362.506 71.5169 358.266 76.3843 354.972C81.2516 351.679 86.7325 349.399 92.4999 348.27C92.7652 348.232 93.0348 348.3 93.2495 348.46C93.4642 348.621 93.6065 348.86 93.645 349.125C93.6834 349.39 93.6149 349.66 93.4546 349.875C93.2942 350.089 93.0552 350.232 92.79 350.27C87.3189 351.398 82.1236 353.593 77.5011 356.729C72.8786 359.866 68.9195 363.883 65.85 368.55C65.7573 368.687 65.632 368.799 65.4854 368.876C65.3388 368.953 65.1754 368.992 65.01 368.99Z" fill="black"/>
<path d="M269.73 520.86C268.682 520.188 267.513 519.73 266.287 519.51C265.062 519.291 263.806 519.315 262.59 519.582C261.374 519.848 260.223 520.352 259.202 521.064C258.181 521.775 257.311 522.682 256.64 523.73L251.4 531.99C250.548 533.314 249.27 534.306 247.777 534.805C246.284 535.303 244.666 535.277 243.19 534.73L241.41 534.06H241.33C239.041 533.211 237.112 531.601 235.867 529.501C234.622 527.4 234.136 524.936 234.49 522.52L235.25 517.3C235.466 515.935 235.187 514.537 234.465 513.359C233.743 512.18 232.624 511.298 231.31 510.87C230.527 510.631 229.701 510.564 228.889 510.674C228.078 510.784 227.3 511.068 226.608 511.507C225.917 511.946 225.328 512.529 224.883 513.216C224.438 513.904 224.147 514.68 224.03 515.49L223.24 520.89C222.089 528.321 218.694 535.223 213.51 540.67C212.756 541.478 212.055 542.333 211.41 543.23V543.23C210.804 544.075 209.942 544.703 208.951 545.02C207.961 545.336 206.894 545.326 205.91 544.989C204.926 544.653 204.077 544.008 203.488 543.151C202.899 542.294 202.602 541.269 202.64 540.23L202.86 532.65C202.901 531.603 203.174 530.578 203.66 529.65L213.02 511.94C214.99 508.222 216.02 504.078 216.02 499.87V478.13C216.02 477.78 216.02 477.44 216.02 477.13C215.833 473.482 216.585 469.847 218.204 466.573C219.824 463.298 222.257 460.495 225.27 458.43L231.67 454.12C232.829 453.362 233.679 452.214 234.064 450.884C234.449 449.554 234.345 448.13 233.77 446.87C233.42 446.132 232.915 445.477 232.289 444.952C231.662 444.427 230.93 444.044 230.142 443.828C229.353 443.613 228.528 443.57 227.721 443.703C226.915 443.836 226.147 444.142 225.47 444.6L213 452.99C212.231 453.499 211.369 453.851 210.464 454.026C209.559 454.202 208.628 454.196 207.724 454.01C206.821 453.824 205.964 453.462 205.201 452.944C204.438 452.425 203.785 451.761 203.28 450.99C203.28 450.99 193.85 441.18 191.07 437.6C187.65 433.19 183.41 429.38 178.98 433.04C175.23 436.13 178.19 442.82 180.7 446.98C184.76 453.69 195.96 474.38 195.96 474.38C196.694 475.501 197.086 476.811 197.09 478.15V499.82C197.089 500.942 196.814 502.047 196.29 503.04L186.92 520.76C186.731 521.142 186.424 521.453 186.045 521.648C185.667 521.843 185.235 521.912 184.815 521.845C184.394 521.778 184.005 521.579 183.706 521.276C183.407 520.973 183.212 520.582 183.15 520.16L179.95 500.46C179.603 498.311 178.985 496.214 178.11 494.22C177.157 492.085 176.947 489.691 177.512 487.422C178.078 485.153 179.387 483.139 181.23 481.7L182.44 480.76C183.128 480.227 183.685 479.543 184.068 478.761C184.451 477.979 184.65 477.121 184.65 476.25V462.67C184.671 461.198 184.134 459.773 183.147 458.68C182.16 457.587 180.797 456.909 179.33 456.78C178.559 456.738 177.787 456.853 177.062 457.119C176.337 457.385 175.673 457.796 175.112 458.326C174.551 458.857 174.103 459.496 173.797 460.205C173.49 460.914 173.332 461.678 173.33 462.45V473.45C172.946 473.748 172.5 473.955 172.024 474.055C171.549 474.155 171.057 474.146 170.585 474.027C170.114 473.909 169.676 473.684 169.304 473.371C168.932 473.058 168.637 472.664 168.44 472.22L165.94 466.56C165.622 465.855 165.429 465.101 165.37 464.33L164.11 448.52C163.607 442.052 160.674 436.013 155.9 431.62C155.9 431.62 145.9 422.15 142.38 419.14C134.98 412.73 126.13 420.14 131.7 428.56C134.52 432.81 143.05 445.56 143.05 445.56C144.317 446.737 145.099 448.346 145.24 450.07L146.5 465.86C146.732 468.759 147.449 471.598 148.62 474.26V474.26C148.62 474.514 148.561 474.765 148.448 474.993C148.335 475.221 148.171 475.419 147.969 475.573C147.767 475.727 147.532 475.832 147.282 475.88C147.032 475.928 146.775 475.918 146.53 475.85L140.99 474.3C140.244 474.09 139.462 474.036 138.694 474.14C137.925 474.244 137.187 474.505 136.523 474.906C135.859 475.308 135.285 475.841 134.836 476.472C134.386 477.104 134.071 477.822 133.91 478.58C133.636 480.027 133.919 481.525 134.704 482.772C135.489 484.018 136.716 484.922 138.14 485.3L145.81 487.44C148.894 488.307 151.748 489.845 154.168 491.944C156.589 494.042 158.515 496.65 159.81 499.58L160.81 501.82C161.046 502.357 161.214 502.922 161.31 503.5L161.44 504.32C161.531 504.868 161.448 505.431 161.203 505.93C160.958 506.429 160.563 506.838 160.073 507.101C159.583 507.364 159.023 507.466 158.472 507.394C157.921 507.322 157.406 507.08 157 506.7L156.95 506.65L128.8 486.33C127.486 485.135 126.693 483.473 126.59 481.7L125.8 463.52C125.3 455.62 108.26 448.74 104.21 446.91C91.8601 441.34 89.2101 450.96 93.5801 453.91L109.86 464.99C110.73 465.58 111.453 466.362 111.973 467.276C112.493 468.19 112.797 469.211 112.86 470.26L113.65 482.89C113.751 484.431 113.985 485.96 114.35 487.46H114.26L94.6401 484.99C92.8106 484.766 91.0992 483.967 89.7517 482.71C88.4043 481.452 87.49 479.8 87.1401 477.99C86.2801 473.66 85.6401 471.07 83.9701 469.7C82.6201 468.59 75.9701 469.06 75.1901 479.4C75.0701 481.07 73.0301 485.21 68.7001 485.11C66.7001 485.11 62.3001 487.37 61.8301 492.11C61.656 493.958 62.1653 495.806 63.2617 497.305C64.3581 498.803 65.9657 499.847 67.7801 500.24C67.7801 500.24 75.2201 501.7 79.1601 502.24C80.4634 502.396 81.6823 502.966 82.638 503.866C83.5936 504.766 84.2358 505.949 84.4701 507.24C85.1601 511.14 86.2501 516.49 87.4701 518.66C88.2401 520.1 90.0901 520.44 91.6001 520.44C93.0509 520.443 94.4473 519.888 95.5001 518.89C96.6901 517.76 98.3001 514.11 99.5801 510.89C99.865 510.153 100.301 509.484 100.861 508.926C101.42 508.368 102.091 507.934 102.829 507.651C103.567 507.368 104.356 507.243 105.145 507.285C105.934 507.326 106.706 507.532 107.41 507.89C113.87 511.21 119.78 515.28 122.93 522.01C123.682 523.62 123.779 525.46 123.2 527.14L120.4 535.33V535.41C119.652 537.612 118.164 539.487 116.19 540.716C114.215 541.945 111.876 542.452 109.57 542.15L101.25 541.06C100.48 540.96 99.6981 541.019 98.9518 541.233C98.2056 541.447 97.5112 541.812 96.9114 542.305C96.3117 542.797 95.8193 543.408 95.4648 544.099C95.1102 544.789 94.9011 545.545 94.8501 546.32C94.7949 547.783 95.2934 549.214 96.2461 550.326C97.1988 551.438 98.5356 552.15 99.9901 552.32L107.8 553.32C113.8 554.11 122.23 558.32 126.65 562.51C130.437 565.906 135.113 568.154 140.13 568.99C141.277 569.199 142.35 569.698 143.248 570.441C144.147 571.183 144.839 572.143 145.26 573.23L154.03 595.53L164.91 595.26C173.48 593.63 173.01 578.62 174.31 575.07C176.31 569.71 184.05 563.58 186.78 561.96C198.02 555.28 219.78 563.96 219.78 563.96L226.87 554.07C227.749 552.84 229.01 551.935 230.457 551.495C231.904 551.056 233.455 551.107 234.87 551.64L236.66 552.31C242.189 554.352 248.248 554.449 253.84 552.586C259.431 550.722 264.221 547.01 267.42 542.06L272.64 533.99C273.316 532.938 273.778 531.763 273.997 530.533C274.217 529.302 274.191 528.04 273.921 526.819C273.65 525.598 273.14 524.443 272.421 523.42C271.702 522.398 270.787 521.528 269.73 520.86V520.86Z" fill="#EC8C92"/>
<path d="M280.29 648.39L277.64 646.99C278.078 646.048 278.299 645.021 278.287 643.982C278.275 642.944 278.03 641.921 277.57 640.99C275.16 635.21 267.35 629.87 256.13 626.36L255.86 626.27C250.86 624.71 247.34 623.27 246.34 621.34L239.75 608.65C237.34 604 231.75 601 225.56 601C224.047 601.06 222.551 600.662 221.266 599.86C219.982 599.057 218.969 597.886 218.36 596.5C217.951 595.437 217.311 594.478 216.486 593.693C215.661 592.908 214.672 592.316 213.59 591.96C211.839 591.411 209.991 591.244 208.169 591.468C206.348 591.692 204.596 592.303 203.03 593.26C201.925 593.943 200.86 594.687 199.84 595.49C196.57 597.94 192.49 601 186.84 601L184.59 601.12C178.33 601.12 174.29 603.69 171.41 609.45L164.8 622.71C161.26 629.79 162.88 637.8 169 643.61L166.94 645.79C159.82 639.03 157.94 629.67 162.11 621.37L168.73 608.11C172.08 601.39 177.24 598.11 184.51 598.11L186.75 597.99C191.49 597.99 194.97 595.38 198.04 593.08C199.157 592.208 200.322 591.4 201.53 590.66C203.481 589.487 205.661 588.746 207.923 588.489C210.185 588.232 212.476 588.464 214.64 589.17C216.132 589.67 217.495 590.494 218.631 591.584C219.767 592.673 220.648 594 221.21 595.47C221.61 596.28 222.24 596.954 223.02 597.41C223.801 597.865 224.698 598.08 225.6 598.03C232.91 598.03 239.53 601.67 242.45 607.3L248.99 619.99C249.22 620.45 250.55 621.5 256.75 623.44L257.02 623.53C273.54 628.7 278.72 635.99 280.33 639.87C280.955 641.204 281.276 642.661 281.269 644.135C281.262 645.608 280.928 647.062 280.29 648.39V648.39Z" fill="#F5C62C"/>
<path d="M156.07 593.41C155.07 590.48 155.44 587.21 157.2 583.67C157.749 581.276 157.847 578.8 157.49 576.37L148.64 569.15C146.631 567.521 145.081 565.399 144.14 562.99L139.59 551.33C139.49 551.08 139.4 550.83 139.32 550.57C138.631 548.672 137.449 546.993 135.895 545.704C134.342 544.416 132.472 543.565 130.48 543.24L126.17 542.41C125.213 542.234 124.346 541.731 123.719 540.987C123.091 540.242 122.742 539.303 122.73 538.33C122.767 537.719 122.934 537.122 123.221 536.581C123.507 536.039 123.906 535.565 124.39 535.19C124.897 534.788 125.484 534.5 126.112 534.345C126.74 534.189 127.394 534.171 128.03 534.29L136.97 536.01C137.878 536.187 138.819 536.014 139.606 535.526C140.392 535.039 140.965 534.272 141.21 533.38L141.26 533.23C141.26 533.16 144.64 525.85 145.47 523.37C146.05 521.62 147.82 516.31 152.47 517.67C155.64 518.59 154.69 522.67 154 525.61C153.9 526.04 153.8 526.46 153.72 526.84C152.97 530.46 150.92 537.84 150.07 540.84C149.895 541.431 149.895 542.059 150.07 542.65C151.767 547.957 153.915 553.109 156.49 558.05V558.15C156.679 558.622 156.985 559.039 157.38 559.36L166.5 566.79C166.576 566.842 166.667 566.87 166.76 566.87C166.853 566.87 166.943 566.842 167.02 566.79C167.092 566.753 167.151 566.695 167.189 566.623C167.226 566.552 167.241 566.47 167.23 566.39L164.95 555.08C164.686 553.764 164.599 552.419 164.69 551.08C164.758 549.91 164.412 548.753 163.714 547.812C163.016 546.871 162.009 546.205 160.87 545.93L159.98 545.7C159.358 545.543 158.782 545.241 158.299 544.818C157.815 544.396 157.439 543.865 157.2 543.27L154.42 535.99C154.065 535.07 154.042 534.055 154.356 533.12C154.67 532.185 155.301 531.389 156.14 530.87C156.51 530.6 156.936 530.418 157.387 530.339C157.837 530.259 158.3 530.283 158.74 530.41C160.03 530.84 160.74 532.24 161.1 533.26L163.31 538.92C163.742 538.958 164.176 538.882 164.57 538.7C165.34 538.39 165.68 537.98 165.7 537.86L166.01 533.52C166.029 533.183 165.992 532.845 165.9 532.52L164.64 528.1C163.534 524.261 163.972 520.141 165.86 516.62C166.325 515.331 166.918 514.091 167.63 512.92C169.49 509.67 172.56 509.09 174.63 509.92C176.4 510.63 178.15 512.7 177.27 516.19C177.16 516.62 177 517.08 176.84 517.58C175.92 520.27 174.54 524.35 179.12 533.43C179.12 533.53 179.19 533.55 179.23 533.56C179.264 533.577 179.302 533.585 179.34 533.585C179.378 533.585 179.416 533.577 179.45 533.56L182.32 531.48C182.851 531.091 183.462 530.823 184.108 530.695C184.754 530.567 185.42 530.583 186.06 530.74C186.641 530.876 187.184 531.141 187.65 531.515C188.115 531.889 188.491 532.362 188.75 532.9C189.127 533.792 189.182 534.787 188.907 535.715C188.631 536.644 188.042 537.448 187.24 537.99L183.24 540.87C181.761 541.911 180.529 543.263 179.631 544.832C178.732 546.401 178.189 548.148 178.04 549.95L177.94 551.37C177.9 551.635 177.9 551.905 177.94 552.17L178.03 552.64C178.144 553.087 178.37 553.498 178.687 553.834C179.003 554.17 179.4 554.42 179.84 554.56C182.53 555.45 187.44 553.45 193.32 549.06C193.876 548.653 194.529 548.396 195.214 548.316C195.899 548.235 196.593 548.333 197.229 548.599C197.865 548.866 198.421 549.292 198.843 549.838C199.266 550.383 199.54 551.028 199.64 551.71C199.83 553.19 199.97 554.88 200.06 556.71L198.43 556.79C198.34 555 198.21 553.36 198.02 551.92C197.971 551.518 197.816 551.136 197.572 550.813C197.328 550.49 197.003 550.237 196.63 550.08C196.251 549.918 195.835 549.859 195.426 549.91C195.016 549.961 194.628 550.12 194.3 550.37C187.89 555.15 182.57 557.19 179.3 556.1C178.603 555.87 177.974 555.468 177.473 554.932C176.971 554.395 176.613 553.741 176.43 553.03L176.32 552.5C176.239 552.092 176.212 551.675 176.24 551.26L176.34 549.83C176.509 547.791 177.124 545.814 178.139 544.038C179.155 542.262 180.548 540.73 182.22 539.55L186.22 536.67C186.726 536.347 187.103 535.857 187.286 535.286C187.468 534.714 187.445 534.096 187.22 533.54C187.063 533.215 186.835 532.93 186.553 532.705C186.271 532.48 185.942 532.321 185.59 532.24C185.181 532.141 184.755 532.133 184.342 532.216C183.929 532.298 183.539 532.471 183.2 532.72L180.33 534.8C180.098 534.969 179.831 535.082 179.548 535.131C179.265 535.18 178.975 535.162 178.7 535.08C178.446 535.011 178.212 534.885 178.015 534.711C177.817 534.538 177.662 534.322 177.56 534.08C172.71 524.46 174.22 520 175.22 517.08C175.38 516.63 175.52 516.22 175.62 515.82C176.24 513.35 175.17 511.95 173.95 511.46C172.52 510.88 170.35 511.36 168.95 513.76C168.29 514.846 167.741 515.995 167.31 517.19L167.25 517.35C165.526 520.51 165.12 524.222 166.12 527.68L167.34 532.04C167.492 532.562 167.549 533.107 167.51 533.65L167.2 537.98C167.14 538.86 166.35 539.69 165.09 540.21C164.62 540.41 162.99 540.98 162 540.11L161.85 539.98L159.46 533.86C158.93 532.49 158.46 532.07 158.1 531.96C157.886 531.922 157.667 531.93 157.457 531.984C157.246 532.037 157.05 532.135 156.88 532.27C156.364 532.587 155.976 533.075 155.782 533.648C155.588 534.222 155.602 534.845 155.82 535.41L158.66 542.7C158.804 543.056 159.03 543.372 159.321 543.622C159.611 543.873 159.957 544.05 160.33 544.14L161.22 544.37C162.727 544.737 164.055 545.625 164.97 546.876C165.885 548.128 166.328 549.663 166.22 551.21C166.133 552.414 166.207 553.625 166.44 554.81L168.73 566.12C168.808 566.534 168.753 566.961 168.573 567.342C168.394 567.722 168.099 568.037 167.73 568.24C167.363 568.467 166.935 568.573 166.504 568.544C166.074 568.516 165.663 568.353 165.33 568.08L156.23 560.66C155.625 560.172 155.153 559.539 154.86 558.82C152.239 553.801 150.057 548.565 148.34 543.17C148.07 542.277 148.07 541.323 148.34 540.43C149.18 537.43 151.23 530.11 151.97 526.54C152.05 526.14 152.15 525.72 152.25 525.27C152.96 522.27 153.41 519.72 151.86 519.27C149.65 518.63 148.15 520.02 146.86 523.92C146.04 526.38 142.99 533.09 142.62 533.92C142.258 535.199 141.43 536.296 140.299 536.994C139.167 537.692 137.815 537.94 136.51 537.69L127.57 535.97C127.163 535.897 126.745 535.911 126.343 536.011C125.942 536.111 125.566 536.295 125.24 536.55C124.84 536.827 124.534 537.219 124.363 537.674C124.192 538.129 124.164 538.626 124.282 539.097C124.4 539.569 124.66 539.993 125.026 540.314C125.392 540.634 125.847 540.835 126.33 540.89L130.63 541.72C132.909 542.101 135.046 543.084 136.819 544.565C138.593 546.047 139.939 547.975 140.72 550.15C140.79 550.37 140.87 550.6 140.96 550.82L145.64 562.4C146.482 564.542 147.859 566.432 149.64 567.89L158.99 575.5V575.81C159.45 578.592 159.348 581.438 158.69 584.18L158.63 584.33C157.05 587.48 156.68 590.33 157.55 592.88L156.07 593.41Z" fill="white"/>
<path d="M122.44 640.32C121.52 629.43 129.37 608.77 137.99 599.39C141.21 595.88 144.35 594.1 147.31 594.1H162.64C164.757 594.084 166.783 593.236 168.28 591.739C169.776 590.243 170.624 588.217 170.64 586.1C170.639 581.598 171.7 577.16 173.737 573.146C175.774 569.131 178.729 565.654 182.362 562.996C185.995 560.338 190.204 558.575 194.646 557.849C199.089 557.124 203.64 557.456 207.93 558.82L219.37 562.46C224.984 564.204 230.778 565.308 236.64 565.75C284.45 569.63 304.64 595 309.01 609.38L311.5 617.52L308.63 618.4L306.14 610.25C301.98 596.6 282.6 572.49 236.39 568.74C230.308 568.261 224.3 567.097 218.48 565.27L207.04 561.64C203.2 560.419 199.126 560.122 195.149 560.772C191.172 561.421 187.405 563 184.153 565.379C180.901 567.758 178.256 570.871 176.433 574.464C174.609 578.058 173.66 582.03 173.66 586.06C173.644 588.972 172.48 591.761 170.421 593.821C168.361 595.88 165.573 597.044 162.66 597.06H147.31C145.25 597.06 142.79 598.56 140.2 601.38C132.2 610.11 124.58 629.98 125.43 640.03L122.44 640.32Z" fill="#EE5253"/>
<path d="M580.02 355.31V353.31H568.38C566.474 353.307 564.646 352.549 563.299 351.201C561.951 349.853 561.193 348.026 561.19 346.12V310.99H531.32V312.99C531.32 313.77 531.11 391.23 531.32 412.09V417.03L534.72 413.45C545.59 402.01 559 401.86 571.96 401.72C573.96 401.72 576.06 401.72 578.07 401.6L579.97 401.54V399.63C580.23 382.46 580.02 355.58 580.02 355.31ZM578.02 399.63C563.34 400.14 546.54 398.17 533.29 412.1C533.08 391.01 533.29 313.03 533.29 313.03H559.17V346.14C559.17 347.347 559.407 348.542 559.869 349.657C560.331 350.772 561.008 351.785 561.862 352.638C562.715 353.492 563.728 354.169 564.843 354.63C565.958 355.092 567.153 355.33 568.36 355.33H578.02C578.02 355.33 578.23 382.25 578.02 399.63V399.63Z" fill="#272727"/>
<path d="M599.07 305.41C600.45 299.84 602.14 292.81 603.96 285.07C605.124 280.106 607.93 275.681 611.923 272.51C615.915 269.339 620.861 267.609 625.96 267.6H658.85C665.069 267.596 671.127 265.624 676.156 261.967C681.186 258.31 684.929 253.155 686.85 247.24C686.1 247.24 685.34 247.29 684.53 247.29C664.3 247.29 664.3 236.45 644.08 236.45C623.86 236.45 623.91 247.29 603.64 247.29C583.37 247.29 583.42 236.45 563.19 236.45C542.96 236.45 542.97 247.29 522.74 247.29C502.51 247.29 502.51 236.45 482.29 236.45C462.07 236.45 462.06 247.29 441.84 247.29C421.62 247.29 421.64 236.45 401.43 236.45C381.22 236.45 381.2 247.29 360.98 247.29C340.76 247.29 340.75 236.45 320.53 236.45C300.31 236.45 300.31 247.29 280.08 247.29C259.85 247.29 259.86 236.45 239.64 236.45C219.42 236.45 219.42 247.29 199.19 247.29C194.159 247.425 189.156 246.508 184.5 244.6C183.408 248.758 182.857 253.04 182.86 257.34V257.34C182.86 362.95 284.74 445.86 390.36 445.86H465.7C489.569 445.86 512.461 436.378 529.34 419.5C546.218 402.621 555.7 379.729 555.7 355.86C555.7 341.38 568.7 332.56 581.91 328.29C596.08 323.72 595.83 318.41 599.07 305.41Z" fill="#272727"/>
<path d="M405.64 44.74C394.896 44.74 384.592 49.008 376.995 56.6051C369.398 64.2022 365.13 74.5061 365.13 85.25V125.43H392.23V85.25C392.233 81.6943 393.646 78.2849 396.161 75.7706C398.675 73.2563 402.084 71.8426 405.64 71.84C408.557 71.84 411.355 70.6811 413.418 68.6182C415.481 66.5553 416.64 63.7574 416.64 60.84V55.69C416.627 52.7813 415.462 49.9962 413.4 47.9441C411.339 45.892 408.549 44.74 405.64 44.74V44.74Z" fill="#F5C62C"/>
<path d="M199.18 247.29C219.41 247.29 219.41 236.45 239.63 236.45C259.85 236.45 259.86 247.29 280.08 247.29C300.3 247.29 300.31 236.45 320.53 236.45C340.75 236.45 340.75 247.29 360.98 247.29C381.21 247.29 381.2 236.45 401.43 236.45C421.66 236.45 421.64 247.29 441.88 247.29C462.12 247.29 462.1 236.45 482.33 236.45C502.56 236.45 502.55 247.29 522.78 247.29C543.01 247.29 543.01 236.45 563.23 236.45C583.45 236.45 583.46 247.29 603.68 247.29C623.9 247.29 623.91 236.45 644.14 236.45C664.37 236.45 664.36 247.29 684.59 247.29C685.4 247.29 686.16 247.29 686.91 247.24C687.864 244.304 688.35 241.237 688.35 238.15V168.09C688.35 164.668 687.001 161.384 684.596 158.95C682.19 156.516 678.922 155.129 675.5 155.09C665.422 155.052 655.532 157.821 646.938 163.086C638.343 168.351 631.384 175.904 626.84 184.9L623.95 190.64C621.393 195.687 617.487 199.927 612.666 202.889C607.845 205.851 602.298 207.419 596.64 207.42H486.44C484.311 207.42 482.203 207.001 480.237 206.186C478.27 205.371 476.483 204.177 474.978 202.672C473.473 201.167 472.279 199.38 471.464 197.413C470.649 195.447 470.23 193.339 470.23 191.21V185.49C470.23 161.08 461.8 142.27 433.93 129.94C421.864 124.771 409.162 121.236 396.16 119.43C367.43 115.31 339.73 118 339.73 147.02V187.56C339.727 192.828 337.633 197.88 333.907 201.604C330.181 205.328 325.128 207.42 319.86 207.42H232.76C221.739 207.421 211.028 211.068 202.296 217.794C193.565 224.519 187.304 233.944 184.49 244.6C189.146 246.508 194.15 247.425 199.18 247.29V247.29Z" fill="#F5C62C"/>
<path d="M405.16 68.8999C402.63 68.8946 400.205 67.8864 398.417 66.0963C396.628 64.3062 395.623 61.8801 395.62 59.3499V57.0799C395.7 54.6019 396.741 52.2522 398.522 50.5276C400.304 48.8031 402.686 47.8389 405.165 47.8389C407.644 47.8389 410.027 48.8031 411.808 50.5276C413.589 52.2522 414.63 54.6019 414.71 57.0799V59.3499C414.707 61.8819 413.7 64.3094 411.91 66.0998C410.12 67.8902 407.692 68.8972 405.16 68.8999V68.8999ZM405.16 49.5399C403.161 49.5425 401.245 50.3378 399.831 51.7512C398.418 53.1647 397.623 55.081 397.62 57.0799V59.3499C397.583 60.3638 397.751 61.3748 398.114 62.3224C398.476 63.27 399.026 64.1349 399.73 64.8652C400.434 65.5956 401.279 66.1765 402.213 66.5733C403.146 66.9701 404.151 67.1746 405.165 67.1746C406.18 67.1746 407.184 66.9701 408.118 66.5733C409.052 66.1765 409.896 65.5956 410.6 64.8652C411.304 64.1349 411.854 63.27 412.217 62.3224C412.579 61.3748 412.747 60.3638 412.71 59.3499V57.0799C412.707 55.0792 411.911 53.1614 410.495 51.7477C409.08 50.334 407.161 49.5399 405.16 49.5399V49.5399Z" fill="#EE5253"/>
<path d="M609.47 266.87C609.394 266.88 609.316 266.88 609.24 266.87C593.51 262.77 584.13 251.27 584.13 236.11V233.46C584.113 228.477 585.271 223.561 587.51 219.11C589.49 215.187 592.423 211.824 596.04 209.33C596.237 209.219 596.469 209.186 596.69 209.239C596.91 209.291 597.103 209.425 597.229 209.613C597.355 209.801 597.406 210.03 597.371 210.253C597.336 210.477 597.218 210.679 597.04 210.82C593.673 213.14 590.942 216.269 589.1 219.92C586.991 224.121 585.898 228.759 585.91 233.46V236.11C585.91 250.61 594.57 261.18 609.68 265.11C609.886 265.173 610.063 265.306 610.18 265.487C610.297 265.668 610.346 265.884 610.318 266.097C610.29 266.311 610.188 266.507 610.029 266.653C609.87 266.798 609.665 266.882 609.45 266.89L609.47 266.87Z" fill="black"/>
<path d="M681.06 198.68H656.33C651.229 198.685 646.338 200.714 642.731 204.321C639.124 207.928 637.095 212.819 637.09 217.92V259.37C637.09 259.609 637.185 259.838 637.354 260.006C637.522 260.175 637.751 260.27 637.99 260.27C638.229 260.27 638.458 260.175 638.626 260.006C638.795 259.838 638.89 259.609 638.89 259.37V217.92C638.898 213.298 640.738 208.868 644.007 205.6C647.277 202.333 651.708 200.495 656.33 200.49H681.06C681.187 200.503 681.315 200.49 681.436 200.451C681.558 200.411 681.669 200.347 681.764 200.261C681.859 200.176 681.935 200.072 681.986 199.955C682.038 199.839 682.065 199.713 682.065 199.585C682.065 199.458 682.038 199.331 681.986 199.215C681.935 199.098 681.859 198.994 681.764 198.909C681.669 198.823 681.558 198.759 681.436 198.72C681.315 198.68 681.187 198.667 681.06 198.68V198.68Z" fill="black"/>
<path d="M446.07 145.38H346.11V147.38H446.07V145.38Z" fill="#EE5253"/>
<path d="M458.19 163.11H347.51V165.11H458.19V163.11Z" fill="#EE5253"/>
<path d="M474.28 206.42H337.32V208.42H474.28V206.42Z" fill="#EE5253"/>
<path d="M398.3 367.26C388.886 367.26 379.683 364.468 371.855 359.238C364.027 354.008 357.926 346.574 354.323 337.876C350.721 329.178 349.778 319.607 351.615 310.374C353.451 301.14 357.985 292.659 364.642 286.002C371.299 279.345 379.78 274.811 389.014 272.975C398.247 271.138 407.818 272.081 416.516 275.683C425.213 279.286 432.648 285.387 437.878 293.215C443.108 301.043 445.9 310.246 445.9 319.66C445.884 332.279 440.864 344.378 431.941 353.301C423.017 362.224 410.919 367.244 398.3 367.26V367.26ZM398.3 274.06C389.281 274.06 380.465 276.734 372.966 281.745C365.467 286.756 359.622 293.877 356.171 302.21C352.72 310.542 351.817 319.711 353.576 328.556C355.336 337.402 359.679 345.527 366.056 351.904C372.433 358.281 380.558 362.624 389.404 364.384C398.249 366.143 407.418 365.24 415.75 361.789C424.083 358.338 431.204 352.493 436.215 344.994C441.226 337.495 443.9 328.679 443.9 319.66C443.887 307.57 439.078 295.979 430.529 287.431C421.981 278.882 410.39 274.073 398.3 274.06Z" fill="white"/>
<path d="M398.3 343.04C411.212 343.04 421.68 332.572 421.68 319.66C421.68 306.748 411.212 296.28 398.3 296.28C385.387 296.28 374.92 306.748 374.92 319.66C374.92 332.572 385.387 343.04 398.3 343.04Z" fill="#EE5253"/>
<path d="M436.486 320.426C436.941 317.591 435.012 314.923 432.176 314.468C429.341 314.013 426.673 315.943 426.218 318.778C425.763 321.614 427.692 324.281 430.528 324.737C433.363 325.192 436.031 323.262 436.486 320.426Z" fill="white"/>
<path d="M368.038 320.431C368.493 317.596 366.564 314.928 363.728 314.473C360.893 314.018 358.225 315.947 357.77 318.783C357.315 321.619 359.244 324.286 362.08 324.741C364.915 325.197 367.583 323.267 368.038 320.431Z" fill="white"/>
<path d="M293.13 356.33C285.877 356.33 278.788 354.179 272.757 350.15C266.727 346.121 262.027 340.394 259.251 333.693C256.476 326.992 255.75 319.619 257.165 312.506C258.58 305.393 262.072 298.859 267.2 293.73C272.329 288.602 278.863 285.11 285.976 283.695C293.089 282.28 300.462 283.006 307.163 285.781C313.864 288.557 319.591 293.257 323.62 299.287C327.649 305.318 329.8 312.407 329.8 319.66C329.789 329.382 325.923 338.703 319.048 345.578C312.173 352.453 302.852 356.319 293.13 356.33V356.33ZM293.13 284.99C286.273 284.99 279.57 287.023 273.868 290.833C268.167 294.643 263.723 300.057 261.099 306.392C258.475 312.728 257.788 319.698 259.126 326.424C260.464 333.149 263.766 339.327 268.615 344.175C273.463 349.024 279.641 352.326 286.366 353.664C293.092 355.002 300.062 354.315 306.398 351.691C312.733 349.067 318.147 344.623 321.957 338.922C325.767 333.22 327.8 326.517 327.8 319.66C327.789 310.468 324.133 301.656 317.634 295.156C311.134 288.657 302.322 285.001 293.13 284.99V284.99Z" fill="white"/>
<path d="M305.783 332.316C312.773 325.326 312.773 313.992 305.783 307.002C298.792 300.011 287.459 300.011 280.468 307.002C273.478 313.992 273.478 325.326 280.468 332.316C287.459 339.307 298.792 339.307 305.783 332.316Z" fill="#EE5253"/>
<path d="M322.39 319.61C322.39 320.401 322.156 321.174 321.716 321.832C321.276 322.49 320.652 323.003 319.921 323.305C319.19 323.608 318.386 323.687 317.61 323.533C316.834 323.379 316.121 322.998 315.562 322.438C315.002 321.879 314.621 321.166 314.467 320.39C314.313 319.614 314.392 318.81 314.695 318.079C314.997 317.348 315.51 316.724 316.168 316.284C316.826 315.844 317.599 315.61 318.39 315.61C319.451 315.61 320.468 316.031 321.219 316.781C321.969 317.532 322.39 318.549 322.39 319.61Z" fill="white"/>
<path d="M270 319.61C270 320.401 269.765 321.174 269.326 321.832C268.886 322.49 268.262 323.003 267.531 323.305C266.8 323.608 265.996 323.687 265.22 323.533C264.444 323.379 263.731 322.998 263.172 322.438C262.612 321.879 262.231 321.166 262.077 320.39C261.923 319.614 262.002 318.81 262.305 318.079C262.607 317.348 263.12 316.724 263.778 316.284C264.436 315.844 265.209 315.61 266 315.61C267.061 315.61 268.078 316.031 268.828 316.781C269.579 317.532 270 318.549 270 319.61Z" fill="white"/>
<path d="M501.28 356.33C494.027 356.33 486.937 354.179 480.907 350.15C474.877 346.121 470.177 340.394 467.401 333.693C464.626 326.992 463.9 319.619 465.314 312.506C466.729 305.393 470.222 298.859 475.35 293.73C480.479 288.602 487.013 285.11 494.126 283.695C501.239 282.28 508.612 283.006 515.313 285.781C522.013 288.557 527.741 293.257 531.77 299.287C535.799 305.318 537.95 312.407 537.95 319.66C537.939 329.382 534.072 338.703 527.198 345.578C520.323 352.453 511.002 356.319 501.28 356.33V356.33ZM501.28 284.99C494.423 284.99 487.72 287.023 482.018 290.833C476.317 294.643 471.873 300.057 469.249 306.392C466.625 312.728 465.938 319.698 467.276 326.424C468.614 333.149 471.916 339.327 476.764 344.175C481.613 349.024 487.791 352.326 494.516 353.664C501.241 355.002 508.212 354.315 514.547 351.691C520.883 349.067 526.297 344.623 530.107 338.922C533.916 333.22 535.95 326.517 535.95 319.66C535.939 310.468 532.283 301.656 525.784 295.156C519.284 288.657 510.472 285.001 501.28 284.99V284.99Z" fill="white"/>
<path d="M513.937 332.312C520.927 325.322 520.927 313.988 513.937 306.998C506.947 300.007 495.613 300.007 488.623 306.998C481.632 313.988 481.632 325.322 488.623 332.312C495.613 339.302 506.947 339.302 513.937 332.312Z" fill="#EE5253"/>
<path d="M530.54 319.61C530.54 320.401 530.305 321.174 529.866 321.832C529.426 322.49 528.802 323.003 528.071 323.305C527.34 323.608 526.536 323.687 525.76 323.533C524.984 323.379 524.271 322.998 523.712 322.438C523.152 321.879 522.771 321.166 522.617 320.39C522.463 319.614 522.542 318.81 522.845 318.079C523.147 317.348 523.66 316.724 524.318 316.284C524.976 315.844 525.749 315.61 526.54 315.61C527.601 315.61 528.618 316.031 529.368 316.781C530.119 317.532 530.54 318.549 530.54 319.61Z" fill="white"/>
<path d="M478.15 319.61C478.15 320.401 477.915 321.174 477.476 321.832C477.036 322.49 476.412 323.003 475.681 323.305C474.95 323.608 474.145 323.687 473.37 323.533C472.594 323.379 471.881 322.998 471.321 322.438C470.762 321.879 470.381 321.166 470.227 320.39C470.072 319.614 470.152 318.81 470.454 318.079C470.757 317.348 471.27 316.724 471.928 316.284C472.585 315.844 473.359 315.61 474.15 315.61C475.211 315.61 476.228 316.031 476.978 316.781C477.729 317.532 478.15 318.549 478.15 319.61Z" fill="white"/>
<path d="M244.78 221.66H242.78V363.21H244.78V221.66Z" fill="white"/>
<path d="M559.97 530.47C559.527 530.468 559.087 530.408 558.66 530.29L391.64 483.99C390.362 483.635 389.277 482.786 388.624 481.631C387.972 480.476 387.805 479.108 388.16 477.83C388.515 476.552 389.364 475.467 390.519 474.814C391.675 474.162 393.042 473.995 394.32 474.35L561.32 520.67C562.489 520.992 563.501 521.729 564.168 522.741C564.834 523.754 565.11 524.975 564.944 526.176C564.777 527.377 564.18 528.477 563.263 529.271C562.347 530.064 561.173 530.498 559.96 530.49L559.97 530.47Z" fill="#F5C62C"/>
<path d="M392.32 435.83C387.629 435.83 383.043 437.221 379.142 439.828C375.241 442.434 372.201 446.139 370.406 450.473C368.61 454.807 368.141 459.576 369.056 464.178C369.971 468.779 372.23 473.005 375.548 476.323C378.865 479.64 383.091 481.899 387.693 482.814C392.294 483.73 397.063 483.26 401.397 481.464C405.732 479.669 409.436 476.629 412.043 472.728C414.649 468.827 416.04 464.241 416.04 459.55C416.04 453.259 413.541 447.226 409.093 442.777C404.644 438.329 398.611 435.83 392.32 435.83ZM392.32 470.03C390.247 470.03 388.221 469.415 386.498 468.264C384.774 467.112 383.431 465.476 382.638 463.561C381.845 461.646 381.637 459.538 382.041 457.505C382.446 455.473 383.444 453.605 384.91 452.14C386.375 450.674 388.243 449.676 390.276 449.271C392.308 448.867 394.416 449.075 396.331 449.868C398.246 450.661 399.882 452.004 401.034 453.728C402.185 455.451 402.8 457.477 402.8 459.55C402.79 462.323 401.681 464.978 399.716 466.935C397.752 468.891 395.093 469.99 392.32 469.99V470.03Z" fill="#EE5253"/>
<path d="M392.32 433.83C387.233 433.83 382.26 435.339 378.031 438.165C373.801 440.991 370.505 445.008 368.558 449.707C366.611 454.407 366.102 459.579 367.094 464.568C368.087 469.557 370.536 474.14 374.133 477.737C377.73 481.334 382.313 483.783 387.302 484.776C392.292 485.768 397.463 485.259 402.163 483.312C406.862 481.366 410.879 478.069 413.705 473.839C416.532 469.61 418.04 464.637 418.04 459.55C418.032 452.731 415.32 446.194 410.498 441.372C405.676 436.55 399.139 433.838 392.32 433.83V433.83ZM392.32 483.27C387.629 483.27 383.043 481.879 379.142 479.273C375.241 476.666 372.201 472.962 370.406 468.627C368.61 464.293 368.141 459.524 369.056 454.922C369.971 450.321 372.23 446.095 375.547 442.777C378.865 439.46 383.091 437.201 387.693 436.286C392.294 435.371 397.063 435.84 401.397 437.636C405.732 439.431 409.436 442.471 412.043 446.372C414.649 450.273 416.04 454.859 416.04 459.55C416.04 465.841 413.541 471.874 409.093 476.323C404.644 480.771 398.611 483.27 392.32 483.27Z" fill="#272727"/>
<path d="M392.32 449.07C390.247 449.07 388.221 449.685 386.498 450.836C384.774 451.988 383.431 453.625 382.638 455.54C381.845 457.455 381.637 459.562 382.041 461.595C382.446 463.628 383.444 465.495 384.91 466.961C386.375 468.426 388.243 469.424 390.276 469.829C392.308 470.233 394.416 470.026 396.331 469.232C398.246 468.439 399.882 467.096 401.034 465.372C402.185 463.649 402.8 461.623 402.8 459.55C402.8 456.771 401.696 454.105 399.731 452.14C397.765 450.174 395.1 449.07 392.32 449.07V449.07ZM392.32 468.07C390.643 468.07 389.003 467.573 387.609 466.641C386.214 465.709 385.127 464.385 384.486 462.835C383.844 461.286 383.676 459.581 384.003 457.936C384.33 456.291 385.138 454.78 386.324 453.594C387.51 452.408 389.021 451.6 390.666 451.273C392.311 450.946 394.016 451.114 395.565 451.756C397.115 452.397 398.439 453.484 399.371 454.879C400.303 456.273 400.8 457.913 400.8 459.59C400.776 461.824 399.873 463.959 398.285 465.532C396.698 467.104 394.555 467.988 392.32 467.99V468.07Z" fill="#272727"/>
<path d="M562.7 502.31C558.596 502.31 554.584 503.527 551.172 505.807C547.76 508.087 545.1 511.328 543.53 515.119C541.959 518.911 541.548 523.083 542.349 527.108C543.15 531.133 545.126 534.831 548.028 537.733C550.93 540.634 554.627 542.611 558.652 543.411C562.677 544.212 566.849 543.801 570.641 542.231C574.432 540.66 577.673 538 579.953 534.588C582.233 531.176 583.45 527.164 583.45 523.06C583.45 517.557 581.264 512.279 577.373 508.388C573.481 504.496 568.203 502.31 562.7 502.31ZM562.7 532.22C560.886 532.22 559.113 531.682 557.605 530.674C556.096 529.666 554.921 528.233 554.227 526.557C553.533 524.881 553.352 523.036 553.707 521.257C554.062 519.478 554.936 517.844 556.22 516.562C557.503 515.28 559.138 514.408 560.917 514.055C562.697 513.702 564.541 513.885 566.216 514.581C567.892 515.277 569.323 516.453 570.33 517.963C571.336 519.472 571.872 521.246 571.87 523.06C571.868 525.49 570.9 527.82 569.181 529.538C567.461 531.255 565.131 532.22 562.7 532.22V532.22Z" fill="#EE5253"/>
<path d="M562.7 500.31C558.201 500.31 553.802 501.644 550.061 504.144C546.32 506.644 543.404 510.197 541.682 514.354C539.96 518.511 539.51 523.085 540.387 527.498C541.265 531.911 543.432 535.965 546.613 539.147C549.795 542.328 553.849 544.495 558.262 545.373C562.675 546.251 567.249 545.8 571.406 544.078C575.563 542.356 579.116 539.44 581.616 535.699C584.116 531.958 585.45 527.56 585.45 523.06C585.445 517.028 583.046 511.245 578.781 506.979C574.516 502.714 568.732 500.315 562.7 500.31ZM562.7 543.81C558.596 543.81 554.584 542.593 551.172 540.313C547.76 538.033 545.1 534.792 543.53 531.001C541.959 527.209 541.548 523.037 542.349 519.012C543.15 514.987 545.126 511.29 548.028 508.388C550.93 505.486 554.627 503.509 558.652 502.709C562.677 501.908 566.849 502.319 570.641 503.89C574.432 505.46 577.673 508.12 579.953 511.532C582.233 514.944 583.45 518.956 583.45 523.06C583.45 528.563 581.264 533.841 577.373 537.733C573.481 541.624 568.203 543.81 562.7 543.81Z" fill="#F5C62C"/>
<path d="M562.7 513.89C560.887 513.89 559.114 514.428 557.606 515.436C556.098 516.443 554.922 517.875 554.228 519.551C553.534 521.227 553.353 523.07 553.706 524.849C554.06 526.628 554.934 528.262 556.216 529.544C557.499 530.827 559.132 531.7 560.911 532.054C562.69 532.408 564.534 532.226 566.21 531.532C567.885 530.838 569.317 529.663 570.325 528.155C571.332 526.647 571.87 524.874 571.87 523.06C571.87 520.628 570.904 518.296 569.184 516.576C567.465 514.856 565.132 513.89 562.7 513.89ZM562.7 530.22C561.282 530.22 559.895 529.799 558.716 529.011C557.537 528.223 556.618 527.102 556.075 525.792C555.533 524.481 555.391 523.039 555.669 521.648C555.946 520.257 556.63 518.979 557.634 517.977C558.638 516.974 559.916 516.292 561.308 516.017C562.699 515.741 564.141 515.885 565.451 516.429C566.761 516.973 567.88 517.894 568.667 519.074C569.453 520.254 569.872 521.642 569.87 523.06C569.868 524.96 569.111 526.781 567.767 528.124C566.422 529.466 564.6 530.22 562.7 530.22V530.22Z" fill="#F5C62C"/>
<path d="M586.45 540.17C586.45 540.17 572.25 564.44 570.22 582.32L573.11 584.01C583.63 577.92 601.89 549.2 601.89 549.2L586.45 540.17Z" fill="#2B303F"/>
<path d="M602.9 547.47L587.46 538.47L585.73 537.47L584.73 539.2C584.14 540.2 570.3 564.05 568.24 582.14L568.1 583.43L569.22 584.09L570.53 584.86L572.11 585.78L573.11 586.37L574.11 585.78C584.93 579.51 602.82 551.5 603.58 550.31L604.69 548.56L602.9 547.47ZM573.11 583.99L570.22 582.3C572.22 564.42 586.45 540.15 586.45 540.15L601.89 549.15C601.89 549.15 583.64 577.92 573.11 583.99Z" fill="#F5C62C"/>
<path d="M573 580.89C571.93 580.263 570.698 579.968 569.46 580.041C568.223 580.114 567.034 580.553 566.046 581.301C565.057 582.05 564.312 583.075 563.906 584.246C563.5 585.418 563.451 586.684 563.764 587.884C564.077 589.083 564.739 590.163 565.666 590.987C566.593 591.811 567.744 592.341 568.972 592.511C570.2 592.68 571.452 592.482 572.567 591.941C573.683 591.4 574.613 590.54 575.24 589.47C576.078 588.034 576.313 586.325 575.893 584.717C575.473 583.109 574.433 581.732 573 580.89V580.89Z" fill="#2B303F"/>
<path d="M577.83 584.21C577.364 582.443 576.327 580.88 574.88 579.764C573.433 578.648 571.657 578.042 569.83 578.04C568.565 578.038 567.317 578.327 566.182 578.884C565.046 579.441 564.054 580.251 563.281 581.252C562.508 582.253 561.975 583.418 561.724 584.657C561.472 585.896 561.508 587.177 561.83 588.4C562.098 589.458 562.574 590.452 563.228 591.325C563.883 592.198 564.703 592.933 565.643 593.488C566.583 594.043 567.624 594.406 568.704 594.556C569.785 594.707 570.885 594.642 571.941 594.365C572.996 594.089 573.987 593.606 574.855 592.945C575.724 592.284 576.452 591.458 577 590.514C577.547 589.57 577.903 588.527 578.045 587.445C578.188 586.363 578.114 585.264 577.83 584.21V584.21ZM575.24 589.47C574.612 590.533 573.684 591.386 572.572 591.923C571.461 592.459 570.215 592.654 568.992 592.483C567.77 592.312 566.625 591.782 565.703 590.962C564.781 590.141 564.122 589.066 563.811 587.872C563.499 586.677 563.548 585.417 563.951 584.251C564.354 583.084 565.094 582.063 566.077 581.316C567.06 580.569 568.242 580.13 569.474 580.055C570.706 579.979 571.933 580.269 573 580.89C573.712 581.304 574.336 581.856 574.835 582.512C575.333 583.168 575.697 583.917 575.905 584.714C576.113 585.511 576.162 586.342 576.048 587.158C575.933 587.975 575.659 588.76 575.24 589.47V589.47Z" fill="#F5C62C"/>
<path d="M604.86 544.13C604.86 544.13 620.93 514.13 621.08 501.97L618.19 500.28C603.61 510.82 589.41 535.1 589.41 535.1L604.86 544.13Z" fill="#2B303F"/>
<path d="M622.09 500.25L620.41 499.25L619.2 498.54L618.08 497.88L617.02 498.64C602.26 509.31 588.27 533.06 587.68 534.07L586.68 535.79L588.4 536.79L603.85 545.79L605.64 546.79L606.64 544.96C607.31 543.72 622.94 514.39 623.1 501.89V500.73L622.09 500.25ZM604.86 544.13L589.41 535.13C589.41 535.13 603.61 510.85 618.19 500.31L621.08 502C620.93 514.13 604.86 544.13 604.86 544.13Z" fill="#F5C62C"/>
<path d="M618.31 503.4C619.381 504.025 620.613 504.319 621.85 504.244C623.088 504.17 624.276 503.73 625.263 502.98C626.251 502.23 626.994 501.204 627.399 500.032C627.803 498.86 627.851 497.595 627.537 496.395C627.222 495.196 626.559 494.117 625.632 493.294C624.704 492.472 623.553 491.943 622.325 491.774C621.096 491.605 619.845 491.805 618.73 492.347C617.615 492.889 616.686 493.75 616.06 494.82C615.223 496.257 614.989 497.967 615.411 499.575C615.833 501.184 616.875 502.559 618.31 503.4Z" fill="#2B303F"/>
<path d="M625.64 490.85C624.225 490.03 622.599 489.647 620.967 489.75C619.335 489.854 617.77 490.439 616.471 491.431C615.171 492.424 614.195 493.779 613.665 495.327C613.136 496.874 613.077 498.543 613.497 500.124C613.916 501.705 614.794 503.125 616.021 504.207C617.248 505.288 618.767 505.982 620.388 506.2C622.009 506.418 623.658 506.15 625.127 505.431C626.595 504.712 627.818 503.574 628.64 502.16C629.737 500.261 630.038 498.005 629.476 495.885C628.914 493.766 627.534 491.955 625.64 490.85ZM626.88 501.16C626.254 502.234 625.324 503.098 624.207 503.642C623.09 504.187 621.836 504.388 620.605 504.22C619.374 504.052 618.22 503.523 617.29 502.699C616.36 501.874 615.695 500.793 615.379 499.591C615.064 498.389 615.113 497.12 615.519 495.946C615.925 494.771 616.67 493.744 617.661 492.993C618.651 492.242 619.842 491.802 621.083 491.729C622.323 491.655 623.558 491.952 624.63 492.58C626.066 493.419 627.111 494.794 627.534 496.403C627.958 498.011 627.726 499.722 626.89 501.16H626.88Z" fill="#F5C62C"/>
<path d="M594.64 376.99C594.64 357.59 599.76 341.87 606.07 341.87H581.54C575.23 341.87 570.11 357.59 570.11 376.99C570.11 396.39 575.23 412.1 581.54 412.1H606.07C599.78 412.1 594.64 396.38 594.64 376.99Z" fill="#272727"/>
<path d="M600.84 369.41C601.84 369.41 605.42 370.66 607.26 375.35C610.73 372.7 611.26 363.91 611.26 362.52C611.14 354.89 608.68 349.21 606.2 349.33C603.27 349.46 600.41 357.15 600.79 367.89C600.79 368.44 600.82 368.99 600.84 369.41ZM600.94 372.2C599.18 377.52 600.01 398.7 603.44 403.63C604.44 405 605.87 405.32 606.65 403.79C608.65 399.85 609.43 390.28 608.3 381.84C607.26 374.09 602.18 372.14 600.94 372.2V372.2ZM610.33 373.09C610.03 374.409 609.424 375.639 608.56 376.68C612.08 387.83 609.75 394.16 609.75 394.16C609.75 394.16 614.11 393.46 614.16 384.76C614.2 378.46 612.82 374.39 610.33 373.09V373.09Z" fill="#F5C62C"/>
<path d="M570.02 494.06C569.489 493.959 568.942 493.966 568.414 494.081C567.886 494.197 567.387 494.419 566.946 494.733C566.506 495.047 566.134 495.447 565.853 495.909C565.571 496.371 565.387 496.885 565.31 497.42L564.84 500.71C564.819 500.88 564.737 501.037 564.609 501.15C564.481 501.264 564.316 501.327 564.145 501.327C563.974 501.327 563.808 501.264 563.68 501.15C563.552 501.037 563.47 500.88 563.45 500.71L562.94 497.37C562.849 496.779 562.626 496.215 562.288 495.721C561.95 495.227 561.506 494.815 560.988 494.516C560.469 494.216 559.891 494.037 559.294 493.991C558.697 493.945 558.098 494.034 557.54 494.25C556.679 494.599 555.963 495.231 555.511 496.042C555.058 496.853 554.895 497.794 555.05 498.71L555.44 501.22C555.528 501.776 555.426 502.345 555.151 502.836C554.875 503.327 554.442 503.71 553.921 503.924C553.401 504.138 552.823 504.171 552.282 504.015C551.741 503.86 551.268 503.527 550.94 503.07L549.12 500.55C548.584 499.785 547.802 499.229 546.904 498.974C546.006 498.719 545.047 498.781 544.19 499.15C543.645 499.391 543.162 499.751 542.774 500.204C542.387 500.656 542.105 501.189 541.95 501.764C541.795 502.339 541.77 502.941 541.877 503.527C541.984 504.113 542.221 504.667 542.57 505.15L555.28 522.71C555.651 523.225 556.139 523.644 556.705 523.932C557.27 524.221 557.895 524.371 558.53 524.37C559.34 524.37 566.43 520.55 566.61 520.55C568.61 520.55 570.1 520.64 570.38 518.64L573.2 498.76C573.363 497.72 573.126 496.656 572.536 495.784C571.945 494.911 571.046 494.295 570.02 494.06V494.06ZM556.64 525.44C554.91 526.81 556.11 526.33 554.83 527.77C554.83 527.83 560.83 537.35 554.67 545.43C552.999 547.521 550.967 549.296 548.67 550.67C545.04 553.11 540.92 555.87 538.22 563.5C532.14 580.7 544.79 595.5 545.33 596.18C545.658 596.625 546.076 596.997 546.555 597.273C547.035 597.548 547.567 597.721 548.117 597.781C548.667 597.84 549.223 597.785 549.75 597.619C550.278 597.452 550.765 597.179 551.182 596.814C551.598 596.45 551.934 596.003 552.169 595.503C552.404 595.002 552.532 594.458 552.546 593.905C552.56 593.352 552.459 592.802 552.25 592.29C552.041 591.778 551.727 591.315 551.33 590.93C551.23 590.82 541.18 579.03 545.72 566.17C547.54 561.04 549.87 559.48 553.09 557.32C556.129 555.477 558.814 553.107 561.02 550.32C568.91 539.94 565.26 529.96 562.24 526.14C561.589 525.307 560.634 524.765 559.584 524.634C558.535 524.503 557.476 524.793 556.64 525.44V525.44Z" fill="#F5C62C"/>
<path d="M395.1 454.59C393.997 454.447 392.878 454.676 391.92 455.24C391.601 455.063 391.266 454.916 390.92 454.8C389.664 454.395 388.299 454.504 387.123 455.101C385.947 455.699 385.054 456.737 384.64 457.99L376.76 481.71C376.342 482.968 376.442 484.341 377.036 485.526C377.631 486.712 378.672 487.612 379.93 488.03C380.439 488.204 380.973 488.292 381.51 488.29C382.373 488.287 383.221 488.061 383.971 487.634C384.721 487.206 385.348 486.591 385.79 485.85L385.44 488.35C385.351 489.001 385.392 489.662 385.559 490.298C385.726 490.933 386.016 491.529 386.414 492.051C386.811 492.574 387.308 493.014 387.875 493.345C388.442 493.675 389.069 493.891 389.72 493.98C389.947 493.995 390.174 493.995 390.4 493.98C391.616 493.991 392.795 493.559 393.715 492.763C394.636 491.968 395.235 490.865 395.4 489.66L399.4 460.21C399.487 459.558 399.445 458.896 399.276 458.261C399.107 457.626 398.815 457.03 398.415 456.508C398.016 455.986 397.518 455.548 396.949 455.219C396.38 454.89 395.752 454.676 395.1 454.59Z" fill="#F5C62C"/>
<path d="M729.21 607.59C738.9 553.2 696.12 507.65 691.46 506.26L686.91 510.94C690.91 516.22 705.6 545.37 702.09 574.77C702.025 575.311 701.844 575.832 701.559 576.296C701.274 576.76 700.891 577.157 700.438 577.459C699.984 577.762 699.471 577.962 698.933 578.047C698.394 578.131 697.844 578.098 697.32 577.95C660.65 567.68 609.46 539.34 609.46 539.34L607.64 542.19L571.94 521.99C571.268 521.61 570.528 521.367 569.762 521.273C568.997 521.18 568.22 521.238 567.476 521.445C566.733 521.651 566.038 522.002 565.43 522.478C564.822 522.953 564.314 523.543 563.935 524.215C563.555 524.887 563.312 525.627 563.218 526.392C563.125 527.158 563.183 527.935 563.389 528.678C563.596 529.422 563.947 530.117 564.422 530.725C564.898 531.332 565.488 531.84 566.16 532.22L601.93 552.46L600.52 554.56C600.52 554.56 655.84 585.2 676.52 606.18C677.037 606.708 677.426 607.348 677.654 608.051C677.883 608.753 677.946 609.499 677.839 610.231C677.731 610.962 677.456 611.658 677.035 612.265C676.613 612.872 676.057 613.374 675.41 613.73C651.21 627.13 616.12 635.22 609.91 633.83L607.64 639.99C611 643.44 674.79 653.35 719.64 623.11C722.304 621.295 725.42 620.257 728.64 620.11C729.76 620.11 730.98 618.02 730.49 616.98C729.1 614.058 728.652 610.777 729.21 607.59V607.59Z" fill="#2B303F"/>
<path d="M731.18 607.99C736.39 578.76 726.6 552.78 717.47 536.14C707.64 518.21 695.41 505.4 692.03 504.39L690.87 504.05L690.02 504.92L685.48 509.6L684.28 510.84L685.28 512.21C689.52 517.76 703.44 546.28 700.07 574.59C700.016 575.019 699.808 575.413 699.484 575.698C699.159 575.984 698.742 576.141 698.31 576.14C698.145 576.14 697.98 576.12 697.82 576.08C661.82 565.99 610.89 537.92 610.38 537.64L608.75 536.74L607.75 538.3L606.92 539.57L572.85 520.3C571.491 519.527 569.933 519.176 568.374 519.292C566.816 519.408 565.327 519.985 564.097 520.951C562.868 521.916 561.954 523.226 561.472 524.713C560.989 526.2 560.961 527.797 561.39 529.3C561.662 530.299 562.13 531.233 562.767 532.048C563.404 532.864 564.197 533.544 565.1 534.05L599 553.22L598.79 553.53L597.58 555.34L599.48 556.4C599.62 556.47 613.48 564.16 629.65 574.3C650.99 587.67 666.65 599.21 675 607.68C675.302 607.983 675.529 608.352 675.663 608.759C675.797 609.165 675.833 609.597 675.77 610.02C675.7 610.439 675.536 610.837 675.29 611.183C675.044 611.53 674.723 611.816 674.35 612.02C652.28 624.24 620.79 632.02 611.68 632.02C611.204 632.034 610.728 631.997 610.26 631.91L608.54 631.53L607.94 633.18L605.7 639.31L605.27 640.49L606.15 641.39C608.71 644.02 624.92 646.33 640.83 646.33C658.71 646.33 692.83 643.53 720.65 624.76C722.994 623.149 725.739 622.221 728.58 622.08C729.237 622.008 729.867 621.776 730.414 621.404C730.961 621.033 731.41 620.534 731.72 619.95C732.102 619.393 732.342 618.751 732.418 618.08C732.495 617.409 732.406 616.729 732.16 616.1C731.011 613.561 730.669 610.73 731.18 607.99V607.99ZM730.38 616.99C730.87 617.99 729.65 620.07 728.53 620.12C725.31 620.267 722.194 621.305 719.53 623.12C694.61 639.94 663.83 644.34 640.83 644.34C622.47 644.34 609.07 641.53 607.58 640L609.82 633.87C610.432 633.992 611.056 634.046 611.68 634.03C621.21 634.03 652.93 626.17 675.32 613.77C675.968 613.414 676.524 612.912 676.945 612.305C677.366 611.698 677.642 611.002 677.749 610.271C677.857 609.539 677.793 608.793 677.565 608.091C677.336 607.388 676.948 606.748 676.43 606.22C655.78 585.22 600.43 554.6 600.43 554.6L601.84 552.5L566.07 532.26C564.714 531.494 563.717 530.22 563.3 528.718C562.882 527.217 563.079 525.612 563.845 524.255C564.612 522.898 565.886 521.902 567.387 521.485C568.888 521.067 570.493 521.264 571.85 522.03L607.55 542.23L609.41 539.38C609.41 539.38 660.64 567.68 697.32 577.99C697.646 578.082 697.982 578.129 698.32 578.13C699.242 578.131 700.133 577.794 700.822 577.182C701.512 576.57 701.952 575.726 702.06 574.81C705.57 545.41 690.92 516.26 686.88 510.98L691.43 506.3C696.09 507.69 738.87 553.24 729.18 607.63C728.619 610.777 729.038 614.019 730.38 616.92V616.99Z" fill="#F5C62C"/>
<path d="M589.619 528.747L580.926 543.611C579.973 545.242 580.521 547.336 582.152 548.29L597.017 556.983C598.647 557.937 600.742 557.388 601.695 555.757L610.388 540.893C611.342 539.262 610.793 537.168 609.163 536.214L594.298 527.521C592.668 526.567 590.573 527.116 589.619 528.747Z" fill="#2B303F"/>
<path d="M612.64 537.73C612.278 536.339 611.379 535.149 610.14 534.42L595.27 525.73C594.439 525.243 593.493 524.987 592.53 524.99C591.585 524.992 590.656 525.241 589.836 525.711C589.015 526.18 588.331 526.856 587.85 527.67L579.16 542.54C578.8 543.154 578.564 543.834 578.467 544.54C578.37 545.245 578.412 545.963 578.592 546.652C578.772 547.341 579.087 547.988 579.517 548.556C579.947 549.123 580.485 549.6 581.1 549.96L595.97 558.65C597.21 559.374 598.687 559.577 600.077 559.213C601.466 558.849 602.654 557.949 603.38 556.71L612.08 541.84C612.441 541.226 612.677 540.547 612.773 539.841C612.869 539.136 612.824 538.418 612.64 537.73V537.73ZM610.35 540.83L601.64 555.7C601.333 556.22 600.894 556.651 600.367 556.947C599.84 557.244 599.245 557.397 598.64 557.39C598.035 557.39 597.441 557.228 596.92 556.92L582.05 548.23C581.662 548.004 581.322 547.703 581.05 547.345C580.779 546.987 580.58 546.579 580.467 546.144C580.354 545.709 580.327 545.256 580.39 544.811C580.452 544.366 580.602 543.937 580.83 543.55L589.52 528.68C589.979 527.898 590.73 527.33 591.608 527.101C592.485 526.872 593.418 527.001 594.2 527.46L609.07 536.15C609.464 536.371 609.809 536.668 610.087 537.024C610.365 537.379 610.57 537.786 610.69 538.221C610.809 538.656 610.842 539.111 610.786 539.559C610.729 540.006 610.584 540.438 610.36 540.83H610.35Z" fill="#F5C62C"/>
<path d="M684.64 248.29C674.27 248.29 669.02 245.48 663.94 242.76C658.86 240.04 654.05 237.45 644.18 237.45C634.31 237.45 629.52 240.03 624.43 242.76C619.34 245.49 614.1 248.29 603.73 248.29C593.36 248.29 588.12 245.48 583.04 242.76C577.96 240.04 573.14 237.45 563.28 237.45C553.42 237.45 548.62 240.03 543.53 242.76C538.44 245.49 533.2 248.29 522.83 248.29C512.46 248.29 507.21 245.48 502.13 242.76C497.05 240.04 492.24 237.45 482.38 237.45C472.52 237.45 467.64 239.99 462.58 242.76C457.52 245.53 452.24 248.29 441.88 248.29C431.52 248.29 426.26 245.48 421.18 242.76C416.1 240.04 411.29 237.45 401.43 237.45C391.57 237.45 386.76 239.99 381.64 242.76C376.52 245.53 371.3 248.29 360.94 248.29C350.58 248.29 345.32 245.48 340.24 242.76C335.16 240.04 330.35 237.45 320.49 237.45C310.63 237.45 305.82 240.03 300.74 242.76C295.66 245.49 290.4 248.29 280.04 248.29C269.68 248.29 264.42 245.48 259.34 242.76C254.26 240.04 249.45 237.45 239.59 237.45C229.73 237.45 224.93 240.03 219.84 242.76C214.75 245.49 209.51 248.29 199.14 248.29C188.77 248.29 183.53 245.48 178.45 242.76C173.37 240.04 168.56 237.45 158.7 237.45C148.84 237.45 144.03 240.03 138.95 242.76C133.87 245.49 128.61 248.29 118.25 248.29V246.29C128.11 246.29 132.92 243.72 138 240.99C143.08 238.26 148.33 235.45 158.7 235.45C169.07 235.45 174.31 238.27 179.39 240.99C184.47 243.71 189.28 246.29 199.14 246.29C209 246.29 213.81 243.72 218.9 240.99C223.99 238.26 229.23 235.45 239.59 235.45C249.95 235.45 255.21 238.27 260.29 240.99C265.37 243.71 270.18 246.29 280.04 246.29C289.9 246.29 294.71 243.72 299.79 240.99C304.87 238.26 310.13 235.45 320.49 235.45C330.85 235.45 336.11 238.27 341.19 240.99C346.27 243.71 351.08 246.29 360.94 246.29C370.8 246.29 375.6 243.72 380.69 240.99C385.78 238.26 391.02 235.45 401.39 235.45C411.76 235.45 417 238.27 422.09 240.99C427.18 243.71 431.98 246.29 441.84 246.29C451.7 246.29 456.54 243.72 461.64 240.99C466.74 238.26 471.97 235.45 482.34 235.45C492.71 235.45 497.96 238.27 503.04 240.99C508.12 243.71 512.93 246.29 522.79 246.29C532.65 246.29 537.46 243.72 542.54 240.99C547.62 238.26 552.88 235.45 563.24 235.45C573.6 235.45 578.86 238.27 583.94 240.99C589.02 243.71 593.83 246.29 603.69 246.29C613.55 246.29 618.36 243.72 623.45 240.99C628.54 238.26 633.78 235.45 644.14 235.45C654.5 235.45 659.76 238.27 664.84 240.99C669.92 243.71 674.73 246.29 684.6 246.29C694.47 246.29 699.26 243.72 704.35 240.99C709.44 238.26 714.68 235.45 725.05 235.45V237.45C715.19 237.45 710.38 240.03 705.3 242.76C700.22 245.49 694.95 248.29 684.64 248.29Z" fill="white"/>
<path d="M606.09 341.87C599.78 341.87 594.66 357.59 594.66 376.99C594.66 396.39 599.78 412.1 606.09 412.1C612.4 412.1 617.52 396.38 617.52 376.99C617.52 357.6 612.4 341.87 606.09 341.87ZM606.09 410.1C602.15 410.1 596.66 397.5 596.66 376.99C596.66 356.48 602.15 343.87 606.09 343.87C610.03 343.87 615.52 356.47 615.52 376.99C615.52 397.51 610.03 410.1 606.09 410.1Z" fill="white"/>
<path d="M386.86 482.46C386.804 482.47 386.746 482.47 386.69 482.46C386.574 482.438 386.463 482.394 386.364 482.33C386.265 482.265 386.179 482.182 386.112 482.084C386.045 481.987 385.998 481.877 385.974 481.761C385.95 481.646 385.948 481.526 385.97 481.41L390.34 458.65C390.362 458.534 390.407 458.423 390.472 458.324C390.537 458.226 390.621 458.14 390.719 458.074C390.817 458.008 390.927 457.961 391.043 457.937C391.159 457.914 391.279 457.913 391.395 457.935C391.511 457.957 391.622 458.002 391.721 458.068C391.819 458.133 391.904 458.217 391.971 458.315C392.037 458.412 392.084 458.523 392.108 458.638C392.131 458.754 392.132 458.874 392.11 458.99L387.75 481.75C387.703 481.951 387.589 482.131 387.428 482.259C387.266 482.388 387.066 482.459 386.86 482.46V482.46Z" fill="black"/>
<path d="M564.04 515.53C563.801 515.53 563.572 515.435 563.403 515.266C563.235 515.097 563.14 514.869 563.14 514.63V504.48C563.126 504.353 563.14 504.225 563.179 504.104C563.219 503.982 563.283 503.871 563.368 503.776C563.454 503.681 563.558 503.605 563.675 503.553C563.791 503.501 563.917 503.475 564.045 503.475C564.172 503.475 564.298 503.501 564.415 503.553C564.531 503.605 564.636 503.681 564.721 503.776C564.806 503.871 564.871 503.982 564.91 504.104C564.95 504.225 564.963 504.353 564.95 504.48V514.63C564.95 514.749 564.926 514.867 564.88 514.977C564.835 515.086 564.767 515.186 564.683 515.27C564.598 515.354 564.498 515.42 564.387 515.464C564.277 515.509 564.159 515.531 564.04 515.53V515.53Z" fill="black"/>
<path d="M556.94 514.12C556.772 514.121 556.607 514.074 556.463 513.986C556.32 513.897 556.205 513.771 556.13 513.62L552.72 506.62C552.667 506.514 552.636 506.398 552.628 506.28C552.621 506.161 552.636 506.042 552.674 505.93C552.712 505.818 552.772 505.714 552.85 505.625C552.929 505.535 553.024 505.463 553.13 505.41C553.236 505.357 553.352 505.326 553.47 505.319C553.589 505.311 553.707 505.326 553.82 505.364C553.932 505.402 554.036 505.462 554.125 505.54C554.214 505.619 554.287 505.714 554.34 505.82L557.75 512.82C557.803 512.926 557.834 513.042 557.842 513.16C557.85 513.279 557.835 513.398 557.797 513.51C557.759 513.623 557.699 513.727 557.62 513.816C557.542 513.905 557.447 513.978 557.34 514.03C557.214 514.087 557.078 514.118 556.94 514.12Z" fill="black"/>
<path d="M390.8 119.75C383.048 118.741 375.204 118.647 367.43 119.47L367.18 117.47C375.114 116.632 383.118 116.726 391.03 117.75L390.8 119.75Z" fill="#EE5253"/>
</g>
<defs>
<clipPath id="clip0">
<rect width="869.57" height="649.58" fill="white"/>
</clipPath>
</defs>
</svg>
