<svg id="app_development" xmlns="http://www.w3.org/2000/svg" xmlns:xlink="http://www.w3.org/1999/xlink" viewBox="0 0 468.89 500" shape-rendering="geometricPrecision" text-rendering="geometricPrecision"><style><![CDATA[#app_development-new-message_to {animation: app_development-new-message_to__to 2000ms linear infinite normal forwards}@keyframes app_development-new-message_to__to { 0% {transform: translate(-90px,256.78px);animation-timing-function: cubic-bezier(0.25,1,0.25,1)} 45% {transform: translate(66.95px,166.78px);animation-timing-function: cubic-bezier(0.25,1,0.25,1)} 50% {transform: translate(66.95px,166.78px);animation-timing-function: cubic-bezier(0.25,1,0.25,1)} 95% {transform: translate(66.95px,106.78px)} 100% {transform: translate(66.95px,106.78px)}} #app_development-new-message {animation: app_development-new-message_c_o 2000ms linear infinite normal forwards}@keyframes app_development-new-message_c_o { 0% {opacity: 1} 50% {opacity: 1;animation-timing-function: cubic-bezier(0.25,1,0.25,1)} 95% {opacity: 0} 100% {opacity: 0}} #app_development-polygon10 {animation: app_development-polygon10_c_o 2000ms linear infinite normal forwards}@keyframes app_development-polygon10_c_o { 0% {opacity: 1} 25% {opacity: 1;animation-timing-function: cubic-bezier(0.25,1,0.25,1)} 50% {opacity: 0} 100% {opacity: 0}} #app_development-g2 {animation: app_development-g2_c_o 2000ms linear infinite normal forwards}@keyframes app_development-g2_c_o { 0% {opacity: 0} 25% {opacity: 0} 50% {opacity: 1} 100% {opacity: 1}} #app_development-polygon13 {animation: app_development-polygon13_c_o 2000ms linear infinite normal forwards}@keyframes app_development-polygon13_c_o { 0% {opacity: 1} 25% {opacity: 1;animation-timing-function: cubic-bezier(0.25,1,0.25,1)} 50% {opacity: 0} 100% {opacity: 0}} #app_development-old-code_to {animation: app_development-old-code_to__to 2000ms linear infinite normal forwards}@keyframes app_development-old-code_to__to { 0% {transform: translate(414.970001px,208.955002px)} 25% {transform: translate(414.970001px,208.955002px);animation-timing-function: cubic-bezier(0.25,1,0.25,1)} 50% {transform: translate(414.97px,198.96px)} 100% {transform: translate(414.97px,198.96px)}} #app_development-message_to {animation: app_development-message_to__to 2000ms linear infinite normal forwards}@keyframes app_development-message_to__to { 0% {transform: translate(66.954909px,166.78px);animation-timing-function: cubic-bezier(0.25,1,0.25,1)} 40% {transform: translate(66.954909px,105.78px);animation-timing-function: cubic-bezier(0.25,1,0.25,1)} 50% {transform: translate(-90px,256.78px);animation-timing-function: cubic-bezier(0.25,1,0.25,1)} 95% {transform: translate(66px,166.78px)} 100% {transform: translate(66px,166.78px)}} #app_development-message {animation: app_development-message_c_o 2000ms linear infinite normal forwards}@keyframes app_development-message_c_o { 0% {opacity: 1;animation-timing-function: cubic-bezier(0.25,1,0.25,1)} 45% {opacity: 0;animation-timing-function: cubic-bezier(0.25,1,0.25,1)} 50% {opacity: 1} 100% {opacity: 1}}]]></style><defs><linearGradient id="app_development-path9-fill" x1="321.247" y1="289.5315" x2="321.247" y2="97.171" spreadMethod="pad" gradientUnits="userSpaceOnUse"><stop id="app_development-path9-fill-0" offset="21%" stop-color="rgba(255,255,255,0)"/><stop id="app_development-path9-fill-1" offset="100%" stop-color="rgba(255,255,255,0.2)"/></linearGradient><linearGradient id="app_development-path91-fill" x1="342.7733" y1="239.828" x2="342.7733" y2="291.808" spreadMethod="pad" gradientUnits="userSpaceOnUse"><stop id="app_development-path91-fill-0" offset="0%" stop-color="rgba(233,234,242,0.8)"/><stop id="app_development-path91-fill-1" offset="100%" stop-color="rgba(233,234,242,0)"/></linearGradient></defs><g id="app_development-2"><g id="app_development-1"><g id="app_development-new-message_to" transform="translate(-90,256.78)"><g id="app_development-new-message" transform="translate(-66.954909,-166.775803)"><path id="app_development-path1" d="M36.12,211.94L27,207.26L7.89,218.26C3.56,220.76,0.04,218.74,0.04,213.73L0.04,192.91C0.339641,187.384663,3.255393,182.33317,7.89,179.31L121.7,113.58C126.03,111.08,129.55,113.11,129.55,118.11L129.55,139C129.250359,144.525337,126.334607,149.57683,121.7,152.6L45.18,196.74" fill="rgb(177,180,196)" stroke="none" stroke-width="1"/><polygon id="app_development-polygon1" points="126.7,112.77 131,114.51 127.36,118.25 124.78,114.12 126.7,112.77" fill="rgb(177,180,196)" stroke="none" stroke-width="1"/><polygon id="app_development-polygon2" points="36.12,211.94 40.65,213.76 40.66,209.86 36.65,209.06 36.12,211.94" fill="rgb(177,180,196)" stroke="none" stroke-width="1"/><path id="app_development-path2" d="M7.61,221C7.78,221.36,2.7,219.28,2.52,219C2.34,218.72,8.68,215,8.68,215Z" fill="rgb(177,180,196)" stroke="none" stroke-width="1"/><path id="app_development-path3" d="M49.71,198.55L126.23,154.38C130.860994,151.35341,133.77559,146.303919,134.08,140.78L134.08,119.93C134.08,114.93,130.56,112.93,126.23,115.39L12.38,181.12C7.747803,184.145451,4.832823,189.195609,4.53,194.72L4.53,215.57C4.53,220.57,8.05,222.57,12.38,220.1L31.49,209.1L40.65,213.79Z" transform="matrix(1 0 0 1 -0.210192 -0.436971)" fill="rgb(233,234,242)" stroke="none" stroke-width="1"/><polygon id="app_development-polygon3" points="123.87,133.53 14.74,196.53 14.74,189.28 123.87,126.27 123.87,133.53" transform="matrix(1 0 0 1 -0.210192 -0.436971)" fill="rgb(36,189,240)" stroke="none" stroke-width="1"/><polygon id="app_development-polygon4" points="86.19,167.98 14.74,209.23 14.74,201.97 86.19,160.72 86.19,167.98" transform="matrix(1 0 0 1 -0.210192 -0.436971)" fill="rgb(36,189,240)" stroke="none" stroke-width="1"/></g></g><g id="app_development-laptop"><path id="app_development-path4" d="M450,384.63L199.93,240.23C196.42,238.23,193.58,232.77,193.58,228.1L193.58,34.63C193.58,29.95,196.42,27.8,199.93,29.83L450,174.23C453.51,176.23,456.35,181.69,456.35,186.36L456.35,379.83C456.39,384.51,453.55,386.66,450,384.63Z" fill="rgb(177,180,196)" stroke="none" stroke-width="1"/><polygon id="app_development-polygon5" points="451.33,386.63 454.1,385.03 452.9,376.82 451.33,386.63" fill="rgb(177,180,196)" stroke="none" stroke-width="1"/><path id="app_development-path5" d="M193.13,31L195.86,29.42L199.78,31.66C199.78,31.66,195.6,32.29,195.5,32.27C195.4,32.25,193.13,31,193.13,31Z" fill="rgb(177,180,196)" stroke="none" stroke-width="1"/><path id="app_development-path6" d="M447.75,386L197.64,241.56C194.13,239.56,191.28,234.1,191.28,229.42L191.28,36C191.28,31.32,194.13,29.17,197.64,31.2L447.75,175.6C451.26,177.6,454.1,183.06,454.1,187.74L454.1,381.16C454.1,385.83,451.26,388,447.75,386Z" fill="rgb(228,231,242)" stroke="none" stroke-width="1"/><path id="app_development-path7" d="M447.31,386.21L197.2,241.81C193.69,239.81,190.84,234.35,190.84,229.67L190.84,36.2C190.84,31.53,193.69,29.38,197.2,31.4L447.31,175.8C450.81,177.8,453.66,183.26,453.66,187.94L453.66,381.41C453.66,386.09,450.81,388.24,447.31,386.21Z" fill="rgb(214,216,229)" stroke="none" stroke-width="1"/><path id="app_development-path8" d="M450.22,374.44L194,226.53L194.15,37C194.15,35.06,195.51,34.27,197.15,35.24L447.26,179.64C449.04081,180.819965,450.1545,182.776347,450.26,184.91Z" fill="rgb(255,255,255)" stroke="none" stroke-width="1"/><path id="app_development-path9" d="M450.14,374.45L194,226.54L194.08,37C194.08,35.06,195.44,34.27,197.08,35.24L447.19,179.64C448.969605,180.821091,450.082917,182.776809,450.19,184.91Z" opacity="0.5" fill="url(#app_development-path9-fill)" stroke="none" stroke-width="1"/><path id="app_development-path10" d="M258.67,498.63L8.56,354.23C5.05,352.23,5.49,348.67,9.56,346.33L177.11,249.59C181.11,247.26,187.29,247,190.79,249.03L440.91,393.43C444.41,395.43,443.97,398.99,439.91,401.33L272.35,498.07C268.3,500.4,262.17,500.66,258.67,498.63Z" opacity="0.4" fill="rgb(214,216,229)" stroke="none" stroke-width="1"/><path id="app_development-path11" d="M264.13,495.35L14,351C10.49,349,10.93,345.44,15,343.1L182.55,246.37C186.55,244.03,192.73,243.77,196.24,245.8L446.35,390.2C449.86,392.2,449.42,395.76,445.35,398.1L277.82,494.79C273.77,497.12,267.64,497.38,264.13,495.35Z" fill="rgb(177,180,196)" stroke="none" stroke-width="1"/><polygon id="app_development-polygon6" points="11.65,347.69 11.65,342.97 16.95,345.19 11.65,347.69" fill="rgb(177,180,196)" stroke="none" stroke-width="1"/><polygon id="app_development-polygon7" points="448.72,393.68 448.72,389.07 444.8,390.42 447.4,394.24 448.72,393.68" fill="rgb(177,180,196)" stroke="none" stroke-width="1"/><path id="app_development-path12" d="M264.13,491.38L14,347C10.49,345,10.93,341.44,15,339.1L182.55,242.36C186.55,240.02,192.73,239.77,196.24,241.8L446.35,386.2C449.86,388.2,449.42,391.76,445.35,394.1L277.82,490.81C273.77,493.15,267.64,493.41,264.13,491.38Z" fill="rgb(228,231,242)" stroke="none" stroke-width="1"/><path id="app_development-path13" d="M264.13,490.77L14,346.37C10.49,344.37,10.93,340.8,15,338.47L182.55,241.73C186.55,239.39,192.73,239.14,196.24,241.16L446.35,385.57C449.86,387.57,449.42,391.13,445.35,393.47L277.82,490.2C273.77,492.54,267.64,492.79,264.13,490.77Z" fill="rgb(214,216,229)" stroke="none" stroke-width="1"/><path id="app_development-path14" d="M177.91,274.36L166.27,267.64C165.27,267.09,165.44,266.13,166.53,265.5L177.65,259.08C178.789669,258.445753,180.16273,258.390089,181.35,258.93L193,265.65C193.95,266.2,193.83,267.16,192.73,267.79L181.62,274.21C180.476791,274.844425,179.100695,274.900063,177.91,274.36Z" fill="rgb(43,48,63)" stroke="none" stroke-width="1"/><path id="app_development-path15" d="M194.4,283.88L182.75,277.15C181.8,276.61,181.92,275.65,183.02,275.01L194.13,268.6C195.273209,267.965575,196.649305,267.909937,197.84,268.45L209.48,275.17C210.48,275.72,210.31,276.68,209.22,277.31L198.1,283.72C196.963306,284.362257,195.587894,284.421735,194.4,283.88Z" fill="rgb(43,48,63)" stroke="none" stroke-width="1"/><path id="app_development-path16" d="M211.07,293.51L199.43,286.78C198.43,286.23,198.6,285.27,199.69,284.64L210.81,278.23C211.946694,277.587743,213.322106,277.528265,214.51,278.07L226.16,284.8C227.16,285.34,226.99,286.3,225.89,286.94L214.78,293.35C213.636636,293.981412,212.263479,294.040632,211.07,293.51Z" fill="rgb(43,48,63)" stroke="none" stroke-width="1"/><path id="app_development-path17" d="M227.37,302.91L215.72,296.19C214.77,295.64,214.89,294.68,215.99,294.05L227.1,287.63C228.243209,286.995575,229.619305,286.939937,230.81,287.48L242.46,294.2C243.41,294.75,243.29,295.71,242.19,296.34L231.08,302.76C229.936791,303.394425,228.560695,303.450063,227.37,302.91Z" fill="rgb(43,48,63)" stroke="none" stroke-width="1"/><path id="app_development-path18" d="M243.86,312.43L232.21,305.71C231.21,305.16,231.38,304.2,232.48,303.57L243.59,297.15C244.733209,296.515575,246.109305,296.459937,247.3,297L258.94,303.72C259.89,304.27,259.77,305.23,258.67,305.86L247.56,312.28C246.420331,312.914247,245.04727,312.969911,243.86,312.43Z" fill="rgb(43,48,63)" stroke="none" stroke-width="1"/><path id="app_development-path19" d="M260.34,322L248.7,315.28C247.75,314.73,247.86,313.77,248.96,313.14L260.07,306.72C261.213209,306.085575,262.589305,306.029937,263.78,306.57L275.43,313.29C276.38,313.84,276.26,314.8,275.16,315.43L264.05,321.85C262.906791,322.484425,261.530695,322.540063,260.34,322Z" fill="rgb(43,48,63)" stroke="none" stroke-width="1"/><path id="app_development-path20" d="M276.83,331.47L265.18,324.75C264.23,324.2,264.35,323.24,265.45,322.61L276.56,316.19C277.703209,315.555575,279.079305,315.499937,280.27,316.04L291.91,322.76C292.86,323.31,292.74,324.27,291.65,324.9L280.53,331.31C279.393306,331.952257,278.017894,332.011735,276.83,331.47Z" fill="rgb(43,48,63)" stroke="none" stroke-width="1"/><path id="app_development-path21" d="M293.31,341L281.67,334.27C280.72,333.72,280.84,332.77,281.93,332.13L293.05,325.72C294.186694,325.077743,295.562106,325.018265,296.75,325.56L308.4,332.29C309.4,332.84,309.23,333.79,308.13,334.43L297,340.83C295.866643,341.468929,294.497303,341.532015,293.31,341Z" fill="rgb(43,48,63)" stroke="none" stroke-width="1"/><path id="app_development-path22" d="M309.8,350.5L298.15,343.78C297.2,343.23,297.32,342.27,298.42,341.64L309.53,335.23C310.670249,334.587588,312.048677,334.528141,313.24,335.07L324.88,341.8C325.83,342.34,325.71,343.3,324.62,343.94L313.51,350.35C312.366791,350.984425,310.990695,351.040063,309.8,350.5Z" fill="rgb(43,48,63)" stroke="none" stroke-width="1"/><path id="app_development-path23" d="M326.28,360L314.64,353.28C313.69,352.73,313.81,351.77,314.9,351.14L326,344.74C327.139669,344.105753,328.51273,344.050089,329.7,344.59L341.35,351.31C342.3,351.86,342.18,352.82,341.08,353.45L330,359.87C328.850927,360.501345,327.470342,360.549591,326.28,360Z" fill="rgb(43,48,63)" stroke="none" stroke-width="1"/><path id="app_development-path24" d="M342.77,369.54L331.12,362.82C330.17,362.27,330.29,361.31,331.39,360.68L342.5,354.26C343.643209,353.625575,345.019305,353.569937,346.21,354.11L357.86,360.83C358.81,361.38,358.69,362.34,357.59,362.97L346.48,369.39C345.336791,370.024425,343.960695,370.080063,342.77,369.54Z" fill="rgb(43,48,63)" stroke="none" stroke-width="1"/><path id="app_development-path25" d="M359.26,379.06L347.61,372.34C346.66,371.79,346.78,370.83,347.88,370.2L359,363.78C360.143209,363.145575,361.519305,363.089937,362.71,363.63L374.35,370.35C375.35,370.9,375.18,371.86,374.08,372.49L363,378.91C361.849763,379.557713,360.458415,379.613516,359.26,379.06Z" fill="rgb(43,48,63)" stroke="none" stroke-width="1"/><path id="app_development-path26" d="M375.74,388.58L364.1,381.85C363.1,381.3,363.26,380.35,364.36,379.71L375.47,373.3C376.611605,372.662356,377.987737,372.603008,379.18,373.14L390.83,379.87C391.78,380.42,391.66,381.37,390.56,382.01L379.45,388.42C378.309751,389.062412,376.931323,389.121859,375.74,388.58Z" fill="rgb(43,48,63)" stroke="none" stroke-width="1"/><path id="app_development-path27" d="M400.17,402.68L380.58,391.37C379.63,390.82,379.75,389.86,380.85,389.23L392,382.82C393.140249,382.177588,394.518677,382.118141,395.71,382.66L415.25,394C416.2,394.55,416.08,395.51,414.99,396.14L403.87,402.56C402.725518,403.184621,401.35255,403.229149,400.17,402.68Z" fill="rgb(43,48,63)" stroke="none" stroke-width="1"/><path id="app_development-path28" d="M186.39,297.7L174.74,291C173.74,290.45,173.91,289.49,175.01,288.86L186.12,282.44C187.263209,281.805575,188.639305,281.749937,189.83,282.29L201.47,289C202.42,289.55,202.3,290.51,201.21,291.14L190.09,297.56C188.948725,298.191033,187.575697,298.242986,186.39,297.7Z" fill="rgb(43,48,63)" stroke="none" stroke-width="1"/><path id="app_development-path29" d="M202.9,307.24L191.26,300.52C190.31,299.97,190.43,299.01,191.52,298.38L202.64,292C203.779669,291.365753,205.15273,291.310089,206.34,291.85L218,298.53C218.95,299.08,218.83,300.04,217.73,300.67L206.62,307.09C205.474139,307.727766,204.09349,307.783437,202.9,307.24Z" fill="rgb(43,48,63)" stroke="none" stroke-width="1"/><path id="app_development-path30" d="M219.42,316.77L207.77,310.05C206.77,309.5,206.94,308.54,208.04,307.91L219.15,301.49C220.293209,300.855575,221.669305,300.799937,222.86,301.34L234.5,308.06C235.45,308.61,235.33,309.57,234.24,310.2L223.12,316.62C221.980331,317.254247,220.60727,317.309911,219.42,316.77Z" fill="rgb(43,48,63)" stroke="none" stroke-width="1"/><path id="app_development-path31" d="M235.93,326.31L224.28,319.58C223.33,319.04,223.45,318.08,224.55,317.44L235.66,311C236.801605,310.362356,238.177737,310.303008,239.37,310.84L251,317.6C251.95,318.15,251.83,319.1,250.73,319.74L239.62,326.15C238.485034,326.785706,237.115732,326.845079,235.93,326.31Z" fill="rgb(43,48,63)" stroke="none" stroke-width="1"/><path id="app_development-path32" d="M252.31,335.77L240.67,329C239.72,328.45,239.84,327.5,240.93,326.86L252.05,320.45C253.186694,319.807743,254.562106,319.748265,255.75,320.29L267.4,327.02C268.4,327.56,268.23,328.52,267.13,329.16L256,335.61C254.863701,336.240998,253.496653,336.300274,252.31,335.77Z" fill="rgb(43,48,63)" stroke="none" stroke-width="1"/><path id="app_development-path33" d="M268.83,345.3L257.18,338.58C256.23,338.03,256.35,337.07,257.45,336.44L268.56,330C269.703209,329.365575,271.079305,329.309937,272.27,329.85L283.91,336.57C284.86,337.12,284.74,338.08,283.65,338.71L272.53,345.13C271.393548,345.770688,270.020414,345.833778,268.83,345.3Z" fill="rgb(43,48,63)" stroke="none" stroke-width="1"/><path id="app_development-path34" d="M285.34,354.83L273.69,348.11C272.74,347.56,272.86,346.6,273.96,345.97L285.07,339.56C286.210249,338.917588,287.588677,338.858141,288.78,339.4L300.43,346.13C301.38,346.67,301.26,347.63,300.16,348.27L289.05,354.68C287.906791,355.314425,286.530695,355.370063,285.34,354.83Z" fill="rgb(43,48,63)" stroke="none" stroke-width="1"/><path id="app_development-path35" d="M301.85,364.37L290.21,357.65C289.26,357.1,289.38,356.14,290.48,355.51L301.59,349.09C302.729669,348.455753,304.10273,348.400089,305.29,348.94L316.94,355.66C317.89,356.21,317.77,357.17,316.67,357.8L305.56,364.22C304.416791,364.854425,303.040695,364.910063,301.85,364.37Z" fill="rgb(43,48,63)" stroke="none" stroke-width="1"/><path id="app_development-path36" d="M318.37,373.9L306.72,367.18C305.72,366.63,305.89,365.67,306.99,365.04L318.1,358.62C319.243209,357.985575,320.619305,357.929937,321.81,358.47L333.45,365.19C334.4,365.74,334.29,366.7,333.19,367.33L322.08,373.75C320.936791,374.384425,319.560695,374.440063,318.37,373.9Z" fill="rgb(43,48,63)" stroke="none" stroke-width="1"/><path id="app_development-path37" d="M334.88,383.44L323.24,376.71C322.29,376.17,322.41,375.21,323.5,374.57L334.62,368.16C335.759395,367.527246,337.130235,367.467966,338.32,368L350,374.73C350.95,375.28,350.83,376.24,349.73,376.87L338.62,383.28C337.471857,383.932557,336.079679,383.992115,334.88,383.44Z" fill="rgb(43,48,63)" stroke="none" stroke-width="1"/><path id="app_development-path38" d="M351.4,393L339.75,386.28C338.8,385.73,338.92,384.77,340.02,384.14L351.13,377.72C352.273209,377.085575,353.649305,377.029937,354.84,377.57L366.48,384.29C367.43,384.84,367.31,385.8,366.22,386.43L355.1,392.85C353.960331,393.484247,352.58727,393.539911,351.4,393Z" fill="rgb(43,48,63)" stroke="none" stroke-width="1"/><path id="app_development-path39" d="M367.91,402.51L356.27,395.78C355.32,395.23,355.43,394.28,356.53,393.64L367.64,387.23C368.781605,386.592356,370.157737,386.533008,371.35,387.07L383,393.8C383.95,394.35,383.83,395.3,382.73,395.94L371.62,402.35C370.479751,402.992412,369.101323,403.051859,367.91,402.51Z" fill="rgb(43,48,63)" stroke="none" stroke-width="1"/><path id="app_development-path40" d="M169.87,288.17L150.29,276.86C149.34,276.31,149.46,275.36,150.55,274.72L161.67,268.31C162.806694,267.667743,164.182106,267.608265,165.37,268.15L185,279.46C185.95,280.01,185.83,280.97,184.73,281.6L173.58,288C172.44,288.640867,171.063831,288.703926,169.87,288.17Z" fill="rgb(43,48,63)" stroke="none" stroke-width="1"/><path id="app_development-path41" d="M399.37,403.29L387.73,396.57C386.643561,396.014475,385.356439,396.014475,384.27,396.57L372.53,403.35C371.53,403.9,371.53,404.79,372.53,405.35L373.46,405.89C374.34,406.39,374.33,407.22,373.46,407.73L361,414.89C360,415.45,360,416.34,361,416.89L368.41,421.17C369.49412,421.720497,370.77588,421.720497,371.86,421.17L383.48,414.47L385.88,413.08L387.61,412.08L389.35,411.08L399.35,405.31C400.32,404.73,400.32,403.84,399.37,403.29Z" fill="rgb(43,48,63)" stroke="none" stroke-width="1"/><path id="app_development-path42" d="M114.06,311.3L102.42,304.58C101.42,304.03,101.59,303.07,102.68,302.44L113.8,296C114.939669,295.365753,116.31273,295.310089,117.5,295.85L129.15,302.57C130.1,303.12,129.98,304.08,128.88,304.71L117.77,311.13C116.63,311.770867,115.253831,311.833926,114.06,311.3Z" fill="rgb(43,48,63)" stroke="none" stroke-width="1"/><path id="app_development-path43" d="M130.5,320.79L118.86,314.07C117.86,313.52,118.03,312.56,119.12,311.93L130.24,305.51C131.379669,304.875753,132.75273,304.820089,133.94,305.36L145.59,312.08C146.54,312.63,146.42,313.59,145.32,314.22L134.21,320.64C133.066791,321.274425,131.690695,321.330063,130.5,320.79Z" fill="rgb(43,48,63)" stroke="none" stroke-width="1"/><path id="app_development-path44" d="M146.94,330.28L135.3,323.56C134.3,323.01,134.46,322.05,135.56,321.42L146.67,315C147.813209,314.365575,149.189305,314.309937,150.38,314.85L162,321.57C162.95,322.12,162.83,323.08,161.73,323.71L150.62,330.13C149.484771,330.754471,148.122287,330.810007,146.94,330.28Z" fill="rgb(43,48,63)" stroke="none" stroke-width="1"/><path id="app_development-path45" d="M286.94,411.11L275.29,404.38C274.29,403.84,274.46,402.88,275.56,402.24L286.67,395.83C287.811605,395.192356,289.187737,395.133008,290.38,395.67L302,402.4C303,402.95,302.83,403.9,301.73,404.54L290.64,411C289.495217,411.626226,288.119963,411.667112,286.94,411.11Z" fill="rgb(43,48,63)" stroke="none" stroke-width="1"/><path id="app_development-path46" d="M303.37,420.6L291.73,413.88C290.73,413.33,290.9,412.37,291.99,411.74L303.11,405.32C304.249669,404.685753,305.62273,404.630089,306.81,405.17L318.46,411.89C319.46,412.44,319.29,413.4,318.19,414.03L307.08,420.45C305.936791,421.084425,304.560695,421.140063,303.37,420.6Z" fill="rgb(43,48,63)" stroke="none" stroke-width="1"/><path id="app_development-path47" d="M319.81,430.09L308.17,423.37C307.22,422.82,307.34,421.86,308.43,421.23L319.55,414.81C320.689669,414.175753,322.06273,414.120089,323.25,414.66L334.9,421.38C335.9,421.93,335.73,422.89,334.63,423.52L323.52,429.94C322.376791,430.574425,321.000695,430.630063,319.81,430.09Z" fill="rgb(43,48,63)" stroke="none" stroke-width="1"/><path id="app_development-path48" d="M336.25,439.58L324.61,432.86C323.66,432.31,323.78,431.35,324.87,430.72L336,424.3C337.139669,423.665753,338.51273,423.610089,339.7,424.15L351.35,430.87C352.35,431.42,352.18,432.38,351.08,433.01L340,439.43C338.846208,440.077855,337.451851,440.13363,336.25,439.58Z" fill="rgb(43,48,63)" stroke="none" stroke-width="1"/><path id="app_development-path49" d="M167.61,342.22L151.73,333.05C150.78,332.5,150.9,331.54,152,330.91L163.11,324.49C164.253209,323.855575,165.629305,323.799937,166.82,324.34L182.7,333.51C183.7,334.06,183.53,335.01,182.43,335.65L171.32,342.06C170.179751,342.702412,168.801323,342.761859,167.61,342.22Z" fill="rgb(43,48,63)" stroke="none" stroke-width="1"/><path id="app_development-path50" d="M270.5,401.62L254.62,392.45C253.62,391.9,253.79,390.94,254.88,390.31L266,383.89C267.139669,383.255753,268.51273,383.200089,269.7,383.74L285.58,392.91C286.53,393.46,286.41,394.41,285.32,395.05L274.2,401.46C273.063306,402.102257,271.687894,402.161735,270.5,401.62Z" fill="rgb(43,48,63)" stroke="none" stroke-width="1"/><path id="app_development-path51" d="M249.82,389.68L172.41,345C171.46,344.45,171.58,343.49,172.67,342.86L183.79,336.44C184.929669,335.805753,186.30273,335.750089,187.49,336.29L264.91,381C265.86,381.55,265.74,382.51,264.64,383.14L253.53,389.56C252.38199,390.184797,251.005986,390.229304,249.82,389.68Z" fill="rgb(43,48,63)" stroke="none" stroke-width="1"/><path id="app_development-path52" d="M174.89,309.52L163.25,302.8C162.3,302.25,162.42,301.29,163.52,300.66L174.63,294.24C175.769669,293.605753,177.14273,293.550089,178.33,294.09L190,300.81C191,301.36,190.83,302.32,189.73,302.95L178.62,309.37C177.471491,310.011118,176.086281,310.066823,174.89,309.52Z" fill="rgb(43,48,63)" stroke="none" stroke-width="1"/><path id="app_development-path53" d="M191.36,319L179.72,312.27C178.77,311.72,178.89,310.77,179.98,310.13L191.1,303.72C192.238061,303.082535,193.611158,303.023158,194.8,303.56L206.45,310.29C207.45,310.84,207.28,311.79,206.18,312.43L195.07,318.84C193.929751,319.482412,192.551323,319.541859,191.36,319Z" fill="rgb(43,48,63)" stroke="none" stroke-width="1"/><path id="app_development-path54" d="M207.83,328.53L196.18,321.81C195.18,321.26,195.35,320.3,196.45,319.67L207.56,313.25C208.703209,312.615575,210.079305,312.559937,211.27,313.1L222.91,319.82C223.91,320.37,223.75,321.33,222.65,321.96L211.54,328.38C210.396791,329.014425,209.020695,329.070063,207.83,328.53Z" fill="rgb(43,48,63)" stroke="none" stroke-width="1"/><path id="app_development-path55" d="M224.3,338L212.65,331.28C211.65,330.73,211.82,329.77,212.92,329.14L224,322.76C225.143209,322.125575,226.519305,322.069937,227.71,322.61L239.35,329.33C240.35,329.88,240.18,330.84,239.09,331.47L228,337.89C226.853918,338.511421,225.480975,338.552238,224.3,338Z" fill="rgb(43,48,63)" stroke="none" stroke-width="1"/><path id="app_development-path56" d="M240.76,347.55L229.12,340.83C228.12,340.28,228.29,339.32,229.38,338.69L240.5,332.27C241.639669,331.635753,243.01273,331.580089,244.2,332.12L255.85,338.84C256.85,339.39,256.68,340.35,255.58,340.98L244.47,347.4C243.326791,348.034425,241.950695,348.090063,240.76,347.55Z" fill="rgb(43,48,63)" stroke="none" stroke-width="1"/><path id="app_development-path57" d="M257.23,357.06L245.59,350.33C244.59,349.78,244.75,348.83,245.85,348.19L257,341.78C258.140249,341.137588,259.518677,341.078141,260.71,341.62L272.36,348.35C273.31,348.9,273.19,349.85,272.09,350.49L260.98,356.9C259.829234,357.555961,258.432457,357.615557,257.23,357.06Z" fill="rgb(43,48,63)" stroke="none" stroke-width="1"/><path id="app_development-path58" d="M273.7,366.56L262.05,359.84C261.1,359.29,261.22,358.33,262.32,357.7L273.43,351.28C274.573209,350.645575,275.949305,350.589937,277.14,351.13L288.78,357.85C289.78,358.4,289.61,359.36,288.52,359.99L277.4,366.41C276.260331,367.044247,274.88727,367.099911,273.7,366.56Z" fill="rgb(43,48,63)" stroke="none" stroke-width="1"/><path id="app_development-path59" d="M290.17,376.07L278.52,369.35C277.57,368.8,277.69,367.84,278.79,367.21L289.9,360.79C291.043209,360.155575,292.419305,360.099937,293.61,360.64L305.25,367.36C306.2,367.91,306.08,368.87,304.98,369.5L293.87,375.92C292.730331,376.554247,291.35727,376.609911,290.17,376.07Z" fill="rgb(43,48,63)" stroke="none" stroke-width="1"/><path id="app_development-path60" d="M306.63,385.58L295,378.86C294.05,378.31,294.17,377.35,295.26,376.72L306.38,370.3C307.519669,369.665753,308.89273,369.610089,310.08,370.15L321.73,376.87C322.68,377.42,322.56,378.38,321.46,379.01L310.35,385.43C309.204139,386.067766,307.82349,386.123437,306.63,385.58Z" fill="rgb(43,48,63)" stroke="none" stroke-width="1"/><path id="app_development-path61" d="M323.1,395.09L311.45,388.36C310.5,387.81,310.62,386.86,311.72,386.22L322.83,379.81C323.970249,379.167588,325.348677,379.108141,326.54,379.65L338.19,386.38C339.14,386.92,339.02,387.88,337.92,388.52L326.81,394.93C325.668395,395.567644,324.292263,395.626992,323.1,395.09Z" fill="rgb(43,48,63)" stroke="none" stroke-width="1"/><path id="app_development-path62" d="M339.57,404.59L327.92,397.87C326.97,397.32,327.09,396.36,328.19,395.73L339.3,389.31C340.443209,388.675575,341.819305,388.619937,343.01,389.16L354.65,395.88C355.65,396.43,355.48,397.39,354.39,398.02L343.27,404.44C342.130331,405.074247,340.75727,405.129911,339.57,404.59Z" fill="rgb(43,48,63)" stroke="none" stroke-width="1"/><path id="app_development-path63" d="M356,414.1L344.36,407.38C343.41,406.83,343.53,405.87,344.63,405.24L355.74,398.82C356.879669,398.185753,358.25273,398.130089,359.44,398.67L371.09,405.39C372.04,405.94,371.92,406.9,370.82,407.53L359.74,414C358.580782,414.628474,357.191146,414.66563,356,414.1Z" fill="rgb(43,48,63)" stroke="none" stroke-width="1"/><path id="app_development-path64" d="M158.43,300L134.34,286.1C133.34,285.55,133.51,284.59,134.61,283.96L145.72,277.54C146.863209,276.905575,148.239305,276.849937,149.43,277.39L173.51,291.29C174.51,291.84,174.34,292.8,173.25,293.43L162.13,299.85C160.990331,300.484247,159.61727,300.539911,158.43,300Z" fill="rgb(43,48,63)" stroke="none" stroke-width="1"/><path id="app_development-path65" d="M150.74,314L139.1,307.3C138.15,306.75,138.26,305.8,139.36,305.16L150.47,298.75C151.610249,298.107588,152.988677,298.048141,154.18,298.59L165.83,305.32C166.78,305.86,166.66,306.82,165.56,307.46L154.45,313.87C153.303589,314.498002,151.927556,314.546219,150.74,314Z" fill="rgb(43,48,63)" stroke="none" stroke-width="1"/><path id="app_development-path66" d="M167.21,323.53L155.56,316.81C154.61,316.26,154.73,315.3,155.83,314.67L166.94,308.25C168.083209,307.615575,169.459305,307.559937,170.65,308.1L182.29,314.82C183.29,315.37,183.12,316.33,182.03,316.96L170.91,323.38C169.770331,324.014247,168.39727,324.069911,167.21,323.53Z" fill="rgb(43,48,63)" stroke="none" stroke-width="1"/><path id="app_development-path67" d="M183.67,333L172,326.31C171,325.76,171.17,324.81,172.27,324.17L183.38,317.76C184.521605,317.122356,185.897737,317.063008,187.09,317.6L198.74,324.33C199.74,324.88,199.57,325.83,198.47,326.47L187.36,332.88C186.218616,333.50286,184.849441,333.547386,183.67,333Z" fill="rgb(43,48,63)" stroke="none" stroke-width="1"/><path id="app_development-path68" d="M200.13,342.54L188.49,335.82C187.49,335.27,187.66,334.31,188.76,333.68L199.87,327.26C201.009669,326.625753,202.38273,326.570089,203.57,327.11L215.22,333.83C216.17,334.38,216.05,335.34,214.95,335.97L203.84,342.39C202.696791,343.024425,201.320695,343.080063,200.13,342.54Z" fill="rgb(43,48,63)" stroke="none" stroke-width="1"/><path id="app_development-path69" d="M216.6,352.05L205,345.33C204.05,344.78,204.17,343.82,205.27,343.19L216.38,336.77C217.523209,336.135575,218.899305,336.079937,220.09,336.62L231.73,343.34C232.68,343.89,232.57,344.85,231.47,345.48L220.36,351.89C219.206616,352.549377,217.80523,352.60901,216.6,352.05Z" fill="rgb(43,48,63)" stroke="none" stroke-width="1"/><path id="app_development-path70" d="M233.06,361.55L221.42,354.83C220.47,354.28,220.59,353.32,221.68,352.69L232.8,346.27C233.939669,345.635753,235.31273,345.580089,236.5,346.12L248.15,352.84C249.1,353.39,248.98,354.35,247.88,354.98L236.77,361.4C235.626791,362.034425,234.250695,362.090063,233.06,361.55Z" fill="rgb(43,48,63)" stroke="none" stroke-width="1"/><path id="app_development-path71" d="M249.53,371.06L237.88,364.34C236.93,363.79,237.05,362.83,238.15,362.2L249.26,355.78C250.403209,355.145575,251.779305,355.089937,252.97,355.63L264.61,362.35C265.56,362.9,265.44,363.86,264.35,364.49L253.24,370.91C252.096791,371.544425,250.720695,371.600063,249.53,371.06Z" fill="rgb(43,48,63)" stroke="none" stroke-width="1"/><path id="app_development-path72" d="M266,380.57L254.36,373.84C253.41,373.29,253.53,372.34,254.62,371.7L265.74,365.29C266.876694,364.647743,268.252106,364.588265,269.44,365.13L281.09,371.86C282.04,372.4,281.92,373.36,280.82,374L269.71,380.41C268.568395,381.047644,267.192263,381.106992,266,380.57Z" fill="rgb(43,48,63)" stroke="none" stroke-width="1"/><path id="app_development-path73" d="M282.46,390.07L270.81,383.35C269.86,382.8,269.98,381.84,271.08,381.21L282.19,374.79C283.333209,374.155575,284.709305,374.099937,285.9,374.64L297.54,381.36C298.49,381.91,298.37,382.87,297.28,383.5L286.16,389.92C285.020331,390.554247,283.64727,390.609911,282.46,390.07Z" fill="rgb(43,48,63)" stroke="none" stroke-width="1"/><path id="app_development-path74" d="M298.92,399.58L287.28,392.85C286.33,392.31,286.45,391.35,287.54,390.71L298.66,384.3C299.798061,383.662535,301.171158,383.603158,302.36,384.14L314,390.87C314.95,391.42,314.83,392.37,313.73,393.01L302.62,399.42C301.482391,400.059053,300.108529,400.118463,298.92,399.58Z" fill="rgb(43,48,63)" stroke="none" stroke-width="1"/><path id="app_development-path75" d="M315.39,409.08L303.74,402.36C302.79,401.81,302.91,400.85,304.01,400.22L315.12,393.8C316.263209,393.165575,317.639305,393.109937,318.83,393.65L330.47,400.37C331.42,400.92,331.3,401.88,330.21,402.51L319.09,408.93C317.950331,409.564247,316.57727,409.619911,315.39,409.08Z" fill="rgb(43,48,63)" stroke="none" stroke-width="1"/><path id="app_development-path76" d="M352.23,430.36L320.23,411.87C319.28,411.32,319.39,410.36,320.49,409.73L331.6,403.31C332.743209,402.675575,334.119305,402.619937,335.31,403.16L367.31,421.65C368.26,422.19,368.14,423.15,367.04,423.79L355.93,430.2C354.791046,430.834316,353.41946,430.893627,352.23,430.36Z" fill="rgb(43,48,63)" stroke="none" stroke-width="1"/><path id="app_development-path77" d="M134.28,304.52L118.4,295.35C117.4,294.8,117.57,293.84,118.66,293.21L129.78,286.8C130.916694,286.157743,132.292106,286.098265,133.48,286.64L149.36,295.81C150.31,296.36,150.19,297.32,149.1,297.95L138,304.37C136.855039,305.010957,135.47285,305.066691,134.28,304.52Z" fill="rgb(43,48,63)" stroke="none" stroke-width="1"/><path id="app_development-path78" d="M416.71,393.13L182.87,258.13C181.87,257.59,182.04,256.63,183.14,255.99L188.7,252.79C189.838061,252.152535,191.211158,252.093158,192.4,252.63L426.24,387.63C427.19,388.18,427.07,389.13,425.97,389.77L420.42,393C419.273589,393.628002,417.897556,393.676219,416.71,393.13Z" fill="rgb(43,48,63)" stroke="none" stroke-width="1"/><path id="app_development-path79" d="M271.85,408.48C271.516093,409.207475,270.944856,409.799868,270.23,410.16L205.89,447.31C203.693538,448.530946,201.048362,448.638533,198.76,447.6L88.76,384.11C88.289883,383.865925,87.911106,383.476626,87.68,383C87.28,382,87.84,380.89,89.3,380.05L153.65,342.89C155.846462,341.669054,158.491638,341.561467,160.78,342.6L270.78,406.09C271.701627,406.489513,272.165868,407.526462,271.85,408.48Z" fill="rgb(177,180,196)" stroke="none" stroke-width="1"/><path id="app_development-path80" d="M271.85,408.48C271.516093,409.207475,270.944856,409.799868,270.23,410.16L205.89,447.31C203.693538,448.530946,201.048362,448.638533,198.76,447.6L88.76,384.11C88.289883,383.865925,87.911106,383.476626,87.68,383C88.0209,382.279804,88.590496,381.692628,89.3,381.33L153.65,344.18C155.845303,342.957414,158.489756,342.846146,160.78,343.88L270.78,407.38C271.246995,407.620285,271.622717,408.006541,271.85,408.48Z" fill="rgb(195,198,209)" stroke="none" stroke-width="1"/><path id="app_development-path81" d="M434.51,382.89L200.67,247.89C199.625952,247.117801,199.00707,245.898567,199,244.6L199,241.85C199,240.58,199.77,240,200.72,240.55L434.56,375.55C435.622619,376.307333,436.261285,377.525254,436.28,378.83L436.28,381.58C436.23,382.86,435.46,383.44,434.51,382.89Z" fill="rgb(43,48,63)" stroke="none" stroke-width="1"/><path id="app_development-path82" d="M236,234.56L212.9,221.25C210.01,219.58,207.66,215.09,207.66,211.25L207.66,186.48C207.66,182.62,210.01,180.85,212.9,182.48L236,195.83C238.9,197.5,241.24,201.99,241.24,205.83L241.24,230.6C241.2,234.46,238.86,236.23,236,234.56Z" fill="rgb(233,234,242)" stroke="none" stroke-width="1"/><path id="app_development-path83" d="M235.91,177.83L212.85,164.52C209.96,162.85,207.61,156.02,207.61,152.68L207.61,123.76C207.61,119.9,209.96,118.13,212.85,119.76L235.91,133.07C238.81,134.74,241.15,139.23,241.15,143.07L241.15,171.99C241.15,175.39,238.81,179.5,235.91,177.83Z" fill="rgb(233,234,242)" stroke="none" stroke-width="1"/><path id="app_development-path84" d="M224.51,158.51C219.82,155.8,216,149.18,216,143.76C216,138.34,219.82,136.13,224.51,138.84C229.2,141.55,233.03,148.17,233.03,153.59C233.03,159.01,229.21,161.22,224.51,158.51ZM224.51,141.36C221.02,139.36,218.18,140.99,218.18,145.02C218.411422,149.487394,220.763776,153.575214,224.51,156.02C228.01,158.02,230.85,156.4,230.85,152.37C230.619451,147.897152,228.262794,143.804598,224.51,141.36Z" fill="rgb(246,221,44)" stroke="none" stroke-width="1"/><polygon id="app_development-polygon8" points="226.85,154.5 222.99,148.36 222.99,143.25 225.17,144.51 225.17,148.48 228.29,153.43 226.85,154.5" fill="rgb(246,221,44)" stroke="none" stroke-width="1"/><path id="app_development-path85" d="M235.88,116.66L212.82,103.35C209.93,101.67,207.58,94.15,207.58,90.8L207.58,64.18C207.58,60.84,209.93,59.48,212.82,61.18L235.88,74.5C238.974807,76.513116,240.921901,79.883372,241.12,83.57L241.12,110.2C241.12,113.51,238.78,118.33,235.88,116.66Z" fill="rgb(233,234,242)" stroke="none" stroke-width="1"/><path id="app_development-path86" d="M224.35,84.75C222.96,83.95,221.84,84.6,221.84,86.21C221.93363,87.977738,222.8664,89.594291,224.35,90.56C225.74,91.36,226.87,90.71,226.87,89.11C226.769275,87.339177,225.834136,85.721237,224.35,84.75ZM231.06,85.75L229.06,84.59C228.735832,84.368934,228.501665,84.038971,228.4,83.66L227.88,81.55C227.771059,81.171787,227.534258,80.843092,227.21,80.62L221.51,77.33C221.23,77.17,220.94,77.24,220.85,77.5L220.33,79C220.277556,79.122734,220.171093,79.214156,220.041843,79.247448C219.912593,79.28074,219.775211,79.252125,219.67,79.17L217.67,78.01C216.75,77.47,216,77.91,216,79.01L216,87.73C216.064319,88.907087,216.684214,89.983551,217.67,90.63L231.09,98.38C232.01,98.91,232.77,98.48,232.77,97.38L232.77,88.63C232.696576,87.442838,232.06137,86.361873,231.06,85.72ZM224.35,92.53C221.878881,90.913447,220.323464,88.218382,220.16,85.27C220.16,82.59,222.04,81.51,224.35,82.85C226.827156,84.460836,228.384506,87.159251,228.54,90.11C228.54,92.75,226.67,93.84,224.35,92.5ZM230.47,88.7C230.12858,88.477927,229.913226,88.106626,229.89,87.7C229.89,87.32,230.15,87.17,230.47,87.36C230.815233,87.579836,231.03452,87.95151,231.06,88.36C231.06,88.71,230.8,88.86,230.47,88.67Z" fill="rgb(246,221,44)" stroke="none" stroke-width="1"/><path id="app_development-path87" d="M231.63,210.35C231.63,214.86,224.56,220.72,224.56,220.72C224.56,220.72,217.48,206.72,217.48,202.18C217.48,197.64,220.65,195.84,224.56,198.09C228.735412,200.816808,231.361288,205.370307,231.63,210.35Z" fill="rgb(246,221,44)" stroke="none" stroke-width="1"/><ellipse id="app_development-ellipse1" rx="3.78" ry="6.54" transform="matrix(0.866025 -0.5 0.5 0.866025 224.559679 205.95787)" fill="rgb(233,234,242)" stroke="none" stroke-width="1"/><g id="app_development-g1"><path id="app_development-path88" d="M399.13,271L259.52,190.39C257.16,189.04,255.26,185.39,255.26,182.26L255.26,88.43C255.26,85.3,257.16,83.86,259.52,85.22L399.13,165.82C401.48,167.18,403.38,170.82,403.38,173.96L403.38,267.78C403.38,270.92,401.48,272.36,399.13,271Z" fill="rgb(233,234,242)" stroke="none" stroke-width="1"/></g><path id="app_development-path89" d="M383,202.79L274.79,140.32C272.17,138.8,270.04,134.74,270.04,131.25L270.04,124.18C270.04,120.68,272.17,119.08,274.79,120.59L383,183.06C385.62,184.57,387.74,188.63,387.74,192.13L387.74,199.2C387.74,202.7,385.62,204.3,383,202.79Z" fill="rgb(255,255,255)" stroke="none" stroke-width="1"/><path id="app_development-path90" d="M324.15,200.6L274.79,172.1C272.17,170.59,270.04,166.53,270.04,163.03L270.04,156C270.04,152.5,272.17,150.9,274.79,152.41L324.15,180.91C326.77,182.42,328.89,186.48,328.89,189.98L328.89,197C328.89,200.5,326.77,202.11,324.15,200.6Z" fill="rgb(246,221,44)" stroke="none" stroke-width="1"/><path id="app_development-path91" d="M427.86,291.64C427.86,291.64,375.23,303.24,332.68,255.98C290.13,208.72,255.42,214.78,255.42,214.78L255.42,244.28L427.86,343.83Z" fill="url(#app_development-path91-fill)" stroke="none" stroke-width="1"/><path id="app_development-path92" d="M427.86,291.64C427.86,291.64,375.23,303.24,332.68,255.98C290.13,208.72,255.42,214.78,255.42,214.78" fill="none" stroke="rgb(204,206,221)" stroke-width="1.06" stroke-miterlimit="10"/></g><g id="app_development-code"><path id="app_development-path93" d="M459.4,311.15L375.88,262.93C370.63,259.93,366.38,251.78,366.38,244.79L366.38,113.38C366.38,106.38,370.63,103.18,375.88,106.2L459.4,154.43C464.64,157.43,468.89,165.58,468.89,172.57L468.89,304C468.89,311,464.64,314.18,459.4,311.15Z" fill="rgb(33,27,73)" stroke="none" stroke-width="1"/><polygon id="app_development-polygon9" points="462.74,313.07 465.6,311.66 463.67,307.87 462.74,313.07" fill="rgb(33,27,73)" stroke="none" stroke-width="1"/><path id="app_development-path94" d="M367.94,106.57C368.781122,106.070194,369.664516,105.645228,370.58,105.3L372.7,109.49Z" fill="rgb(33,27,73)" stroke="none" stroke-width="1"/><path id="app_development-path95" d="M457.21,312.25L373.68,264C368.44,261,364.19,252.85,364.19,245.86L364.19,114.48C364.19,107.48,368.44,104.27,373.68,107.3L457.21,155.53C462.45,158.53,466.7,166.67,466.7,173.66L466.7,305.07C466.7,312.06,462.45,315.28,457.21,312.25Z" transform="matrix(1 0 0 1 0 -0.004277)" fill="rgb(46,36,91)" stroke="none" stroke-width="1"/><polygon id="app_development-polygon10" points="388.87,134.7 373.68,125.93 373.68,120.45 388.87,129.22 388.87,134.7" fill="rgb(255,36,1)" stroke="none" stroke-width="1"/><g id="app_development-g2" transform="matrix(1 0 0 1 0.190009 -9.947444)" opacity="0"><polygon id="app_development-polygon11" points="388.87,196.07 373.68,187.31 373.68,181.83 388.87,190.6 388.87,196.07" transform="matrix(1 0 0 1 -0.189999 70.605062)" fill="rgb(255,36,1)" stroke="none" stroke-width="1"/><polygon id="app_development-polygon12" points="451.52,232.24 391.72,197.72 391.72,192.24 451.52,226.76 451.52,232.24" transform="matrix(1 0 0 1 -0.189999 70.605063)" fill="rgb(244,206,44)" stroke="none" stroke-width="1"/></g><polygon id="app_development-polygon13" points="456.26,173.61 391.72,136.34 391.72,130.87 456.26,168.13 456.26,173.61" fill="rgb(36,189,240)" stroke="none" stroke-width="1"/><g id="app_development-old-code_to" transform="translate(414.970001,208.955002)"><g id="app_development-old-code" transform="translate(-414.970001,-208.955002)"><polygon id="app_development-polygon14" points="388.87,152.24 373.68,143.47 373.68,137.99 388.87,146.76 388.87,152.24" fill="rgb(255,36,1)" stroke="none" stroke-width="1"/><polygon id="app_development-polygon15" points="434.43,178.54 391.72,153.88 391.72,148.4 434.43,173.06 434.43,178.54" fill="rgb(244,206,44)" stroke="none" stroke-width="1"/><polygon id="app_development-polygon16" points="388.87,161 373.68,152.24 373.68,146.76 388.87,155.52 388.87,161" fill="rgb(255,36,1)" stroke="none" stroke-width="1"/><polygon id="app_development-polygon17" points="444.87,193.34 391.72,162.65 391.72,157.17 444.87,187.86 444.87,193.34" fill="rgb(255,134,87)" stroke="none" stroke-width="1"/><polygon id="app_development-polygon18" points="388.87,169.77 373.68,161 373.68,155.52 388.87,164.29 388.87,169.77" fill="rgb(255,36,1)" stroke="none" stroke-width="1"/><polygon id="app_development-polygon19" points="428.74,192.79 391.72,171.42 391.72,165.94 428.74,187.31 428.74,192.79" fill="rgb(255,36,1)" stroke="none" stroke-width="1"/><polygon id="app_development-polygon20" points="388.87,143.47 373.68,134.7 373.68,129.22 388.87,137.99 388.87,143.47" fill="rgb(255,36,1)" stroke="none" stroke-width="1"/><polygon id="app_development-polygon21" points="423.99,163.75 391.72,145.11 391.72,139.63 423.99,158.26 423.99,163.75" fill="rgb(77,59,255)" stroke="none" stroke-width="1"/><polygon id="app_development-polygon22" points="388.87,178.54 373.68,169.77 373.68,164.29 388.87,173.06 388.87,178.54" fill="rgb(255,36,1)" stroke="none" stroke-width="1"/><polygon id="app_development-polygon23" points="410.7,191.14 391.72,180.18 391.72,174.7 410.7,185.66 410.7,191.14" fill="rgb(36,189,240)" stroke="none" stroke-width="1"/><polygon id="app_development-copy-of-polygon" points="388.87,196.07 373.68,187.31 373.68,181.83 388.87,190.6 388.87,196.07" fill="rgb(255,36,1)" stroke="none" stroke-width="1"/><polygon id="app_development-copy-of-polygon2" points="451.52,232.24 391.72,197.72 391.72,192.24 451.52,226.76 451.52,232.24" fill="rgb(244,206,44)" stroke="none" stroke-width="1"/><polygon id="app_development-polygon24" points="388.87,204.84 373.68,196.07 373.68,190.59 388.87,199.36 388.87,204.84" fill="rgb(255,36,1)" stroke="none" stroke-width="1"/><polygon id="app_development-polygon25" points="409.75,216.9 391.72,206.49 391.72,201.01 409.75,211.42 409.75,216.9" fill="rgb(255,134,87)" stroke="none" stroke-width="1"/><polygon id="app_development-polygon26" points="388.87,213.61 373.68,204.84 373.68,199.36 388.87,208.13 388.87,213.61" fill="rgb(255,36,1)" stroke="none" stroke-width="1"/><polygon id="app_development-polygon27" points="444.87,245.94 391.72,215.25 391.72,209.78 444.87,240.46 444.87,245.94" fill="rgb(255,36,1)" stroke="none" stroke-width="1"/><polygon id="app_development-polygon28" points="388.87,187.31 373.68,178.54 373.68,173.06 388.87,181.83 388.87,187.31" fill="rgb(255,36,1)" stroke="none" stroke-width="1"/><polygon id="app_development-polygon29" points="442.02,218 391.72,188.95 391.72,183.47 442.02,212.52 442.02,218" fill="rgb(77,59,255)" stroke="none" stroke-width="1"/><polygon id="app_development-polygon30" points="388.87,222.38 373.68,213.61 373.68,208.13 388.87,216.9 388.87,222.38" fill="rgb(255,36,1)" stroke="none" stroke-width="1"/><polygon id="app_development-polygon31" points="398.36,227.86 391.72,224.02 391.72,218.54 398.36,222.38 398.36,227.86" fill="rgb(36,189,240)" stroke="none" stroke-width="1"/><polygon id="app_development-polygon32" points="388.87,239.91 373.68,231.15 373.68,225.67 388.87,234.44 388.87,239.91" fill="rgb(255,36,1)" stroke="none" stroke-width="1"/><polygon id="app_development-polygon33" points="404.06,248.68 391.72,241.56 391.72,236.08 404.06,243.2 404.06,248.68" fill="rgb(244,206,44)" stroke="none" stroke-width="1"/><polygon id="app_development-polygon34" points="388.87,248.68 373.68,239.91 373.68,234.43 388.87,243.2 388.87,248.68" fill="rgb(255,36,1)" stroke="none" stroke-width="1"/><polygon id="app_development-polygon35" points="423.99,268.96 391.72,250.33 391.72,244.85 423.99,263.48 423.99,268.96" fill="rgb(255,134,87)" stroke="none" stroke-width="1"/><polygon id="app_development-polygon36" points="388.87,257.45 373.68,248.68 373.68,243.2 388.87,251.97 388.87,257.45" fill="rgb(255,36,1)" stroke="none" stroke-width="1"/><polygon id="app_development-polygon37" points="442.97,288.69 391.72,259.09 391.72,253.61 442.97,283.21 442.97,288.69" fill="rgb(255,36,1)" stroke="none" stroke-width="1"/><polygon id="app_development-polygon38" points="388.87,231.15 373.68,222.38 373.68,216.9 388.87,225.67 388.87,231.15" fill="rgb(255,36,1)" stroke="none" stroke-width="1"/><polygon id="app_development-polygon39" points="456.26,270.06 391.72,232.79 391.72,227.31 456.26,264.57 456.26,270.06" fill="rgb(77,59,255)" stroke="none" stroke-width="1"/></g></g></g><g id="app_development-message_to" transform="translate(66.954909,166.78)"><g id="app_development-message" style="mix-blend-mode:lighten;isolation:isolate" transform="translate(-66.954909,-166.775803)"><path id="app_development-path96" d="M36.12,211.94L27,207.26L7.89,218.26C3.56,220.76,0.04,218.74,0.04,213.73L0.04,192.91C0.339641,187.384663,3.255393,182.33317,7.89,179.31L121.7,113.58C126.03,111.08,129.55,113.11,129.55,118.11L129.55,139C129.250359,144.525337,126.334607,149.57683,121.7,152.6L45.18,196.74" fill="rgb(177,180,196)" stroke="none" stroke-width="1"/><polygon id="app_development-polygon40" points="126.7,112.77 131,114.51 127.36,118.25 124.78,114.12 126.7,112.77" fill="rgb(177,180,196)" stroke="none" stroke-width="1"/><polygon id="app_development-polygon41" points="36.12,211.94 40.65,213.76 40.66,209.86 36.65,209.06 36.12,211.94" fill="rgb(177,180,196)" stroke="none" stroke-width="1"/><path id="app_development-path97" d="M7.61,221C7.78,221.36,2.7,219.28,2.52,219C2.34,218.72,8.68,215,8.68,215Z" fill="rgb(177,180,196)" stroke="none" stroke-width="1"/><path id="app_development-path98" d="M49.71,198.55L126.23,154.38C130.860994,151.35341,133.77559,146.303919,134.08,140.78L134.08,119.93C134.08,114.93,130.56,112.93,126.23,115.39L12.38,181.12C7.747803,184.145451,4.832823,189.195609,4.53,194.72L4.53,215.57C4.53,220.57,8.05,222.57,12.38,220.1L31.49,209.1L40.65,213.79Z" transform="matrix(1 0 0 1 -0.210192 -0.436971)" fill="rgb(233,234,242)" stroke="none" stroke-width="1"/><polygon id="app_development-polygon42" points="123.87,133.53 14.74,196.53 14.74,189.28 123.87,126.27 123.87,133.53" transform="matrix(1 0 0 1 -0.210192 -0.436971)" fill="rgb(246,221,44)" stroke="none" stroke-width="1"/><polygon id="app_development-polygon43" points="86.19,167.98 14.74,209.23 14.74,201.97 86.19,160.72 86.19,167.98" transform="matrix(1 0 0 1 -0.210192 -0.436971)" fill="rgb(246,221,44)" stroke="none" stroke-width="1"/></g></g></g></g></svg>